<?xml version="1.0" encoding="UTF-8"?>
<svg version="1.1" xmlns="http://www.w3.org/2000/svg" width="500" height="500">
<path d="M0 0 C1.4561686 -0.00542755 2.91233169 -0.01255375 4.3684845 -0.02124023 C8.30451102 -0.03940158 12.24011592 -0.03243611 16.17614937 -0.01972389 C20.30571712 -0.00955874 24.43525008 -0.0189993 28.56481934 -0.02526855 C35.49819382 -0.03253477 42.43139757 -0.02298431 49.36474609 -0.00390625 C57.36740156 0.0178606 65.36964931 0.0108085 73.3722949 -0.01121187 C80.25748531 -0.02939523 87.14255336 -0.03190989 94.02776003 -0.0214572 C98.13374287 -0.01523835 102.2395344 -0.01434208 106.34550476 -0.02760315 C110.20675824 -0.03920397 114.06748883 -0.03105957 117.92868614 -0.00802612 C119.34114911 -0.00276148 120.75365649 -0.0042142 122.16610146 -0.01307678 C131.6951396 -0.06733095 138.02653772 0.50470887 145.35351562 7.01757812 C146.07539063 7.84257813 146.79726562 8.66757813 147.54101562 9.51757812 C148.09789062 10.11570312 148.65476563 10.71382812 149.22851562 11.33007812 C153.61068079 18.63368673 152.88099073 27.62816055 152.85668945 35.83569336 C152.85351792 38.07845185 152.87708541 40.31990278 152.90234375 42.5625 C152.90461631 44.00715982 152.90532044 45.45182313 152.90429688 46.89648438 C152.90727783 48.19142822 152.91025879 49.48637207 152.91333008 50.82055664 C152.49544521 54.9700849 151.48369442 57.83568697 149.54101562 61.51757812 C148.85609417 62.07152882 148.17117271 62.62547951 147.46549606 63.19621658 C144.68633242 66.54852066 144.98173215 69.77038468 145.02203369 73.93304443 C145.01453244 74.78992458 145.00703119 75.64680472 144.99930263 76.52965093 C144.97897549 79.40575416 144.98713794 82.28107282 144.99511719 85.15722656 C144.98638491 87.21691165 144.97590035 89.27658994 144.96379089 91.33625793 C144.93586808 96.93300372 144.9325276 102.52952885 144.93351078 108.12633419 C144.93038708 113.97337252 144.90478021 119.82031066 144.88153076 125.66729736 C144.84092559 136.74173578 144.82061942 147.81611524 144.80755687 158.89061666 C144.79170213 171.49753586 144.75329294 184.10435452 144.71296358 196.7112155 C144.63050278 222.64663892 144.57724933 248.58205249 144.54101562 274.51757812 C149.82101563 274.18757813 155.10101563 273.85757812 160.54101562 273.51757812 C160.19039062 272.23882812 159.83976563 270.96007812 159.47851562 269.64257812 C157.68065047 261.3176808 158.88410667 254.30784682 162.96289062 246.84179688 C167.61631747 239.98835882 174.97846648 234.66626477 183.14171124 232.98052502 C187.10384687 232.44092686 190.99516403 232.37588373 194.98457336 232.38386536 C195.82047805 232.3815998 196.65638275 232.37933424 197.51761788 232.37700003 C200.31099444 232.37068369 203.10432218 232.37148788 205.89770508 232.37231445 C207.90366681 232.36932148 209.90962797 232.36591864 211.91558838 232.36213684 C217.3598817 232.35330659 222.80415931 232.35095913 228.2484591 232.35032105 C231.65135566 232.34960999 235.05424822 232.3474746 238.45714378 232.34482384 C250.33300403 232.3355736 262.20885306 232.33148854 274.0847168 232.33227539 C285.14777641 232.33287608 296.21078725 232.32232514 307.27383453 232.30653173 C316.77805381 232.29344806 326.28225716 232.28809184 335.78648537 232.2887308 C341.46023186 232.28898555 347.133935 232.28614718 352.8076725 232.27555275 C358.14531251 232.26585792 363.48286784 232.26580213 368.82051086 232.27306938 C370.77599397 232.2741135 372.73148239 232.27176261 374.68695641 232.26570892 C377.36357207 232.25796152 380.0398973 232.26265193 382.71650696 232.27033997 C383.48384307 232.2651964 384.25117918 232.26005284 385.0417679 232.25475341 C395.00364957 232.31765564 402.97564803 234.52010519 410.45507812 241.23632812 C416.28488282 247.28940194 419.6246373 254.69373315 419.97851562 263.14257812 C419.49884905 272.38856496 415.50385273 279.88461885 408.85351562 286.20507812 C402.13406192 291.84195318 395.00502297 292.67883351 386.54101562 293.51757812 C386.31027344 294.66613281 386.07953125 295.8146875 385.84179688 296.99804688 C382.89223083 311.23812705 378.92290895 323.45302229 370.54101562 335.51757812 C370.04988281 336.25621094 369.55875 336.99484375 369.05273438 337.75585938 C367.94446237 339.38720962 366.75182893 340.96081816 365.54101562 342.51757812 C364.88101562 342.51757812 364.22101563 342.51757812 363.54101562 342.51757812 C363.28964844 343.0821875 363.03828125 343.64679688 362.77929688 344.22851562 C350.51936753 366.89198122 319.83547735 377.65985172 296.87890625 384.6484375 C278.55870951 389.92318988 259.48877904 392.01754685 240.54101562 393.51757812 C240.77997559 394.08935791 241.01893555 394.6611377 241.26513672 395.25024414 C248.18468991 411.87616917 254.72195138 428.63992313 261.16601562 445.45507812 C261.57277527 446.51429474 261.97953491 447.57351135 262.39862061 448.66482544 C263.56610361 451.70711693 264.73003326 454.75074042 265.89257812 457.79492188 C266.24628479 458.71679291 266.59999146 459.63866394 266.9644165 460.58847046 C267.28956238 461.44284698 267.61470825 462.29722351 267.94970703 463.17749023 C268.23407623 463.92212021 268.51844543 464.66675018 268.81143188 465.4339447 C271.57543743 473.32772579 271.31936165 480.46598274 267.93554688 488.15429688 C264.26023923 494.38275941 258.39446839 498.39632172 251.54101562 500.51757812 C248.29991767 500.93321918 245.0959172 500.92733851 241.83155823 500.90525818 C240.87158698 500.91064372 239.91161572 500.91602925 238.92255443 500.92157799 C235.71524658 500.93585206 232.50835175 500.92875508 229.30102539 500.92163086 C226.99772816 500.92733469 224.69443375 500.93429899 222.3911438 500.94242859 C216.14117973 500.96037326 209.89135597 500.95918914 203.64137387 500.9534862 C198.42257708 500.95039637 193.20380732 500.95648451 187.98501438 500.96252495 C174.96939484 500.97737579 161.95385411 500.97375304 148.93823486 500.96166164 C137.64376639 500.95172945 126.34946175 500.96467095 115.05501855 500.98859584 C103.4472516 501.01299848 91.83956773 501.02219234 80.2317757 501.01594311 C73.71911274 501.01257165 67.20658515 501.01500141 60.69394112 501.03219414 C54.56990651 501.04765539 48.44618484 501.04371643 42.32216263 501.02488899 C40.07600019 501.02120095 37.8298146 501.02431781 35.58367348 501.03477478 C32.51457369 501.04797106 29.44651199 501.03644849 26.37745667 501.01878357 C25.49116139 501.02838858 24.60486611 501.03799358 23.69171339 501.04788965 C16.43071866 500.96205407 11.33935778 498.87072948 5.79101562 494.20507812 C-0.40151605 486.80844306 -2.20853466 480.02963002 -1.45898438 470.51757812 C-0.71828907 466.86190649 0.36453777 463.35521929 1.50585938 459.80664062 C1.96937805 458.30816589 1.96937805 458.30816589 2.44226074 456.77941895 C3.44096503 453.56278539 4.45944068 450.35280939 5.47851562 447.14257812 C6.16793114 444.93445106 6.85615949 442.72595301 7.54321289 440.51708984 C10.49476847 431.05414519 13.4999411 421.60836632 16.54101562 412.17382812 C16.75617325 411.5062851 16.97133087 410.83874207 17.19300842 410.15097046 C18.15232495 407.18069876 19.12046807 404.21372679 20.10131836 401.25048828 C20.43075439 400.24808105 20.76019043 399.24567383 21.09960938 398.21289062 C21.38118896 397.36742676 21.66276855 396.52196289 21.95288086 395.65087891 C22.67390411 393.40437557 22.67390411 393.40437557 22.54101562 390.51757812 C21.62320313 390.09347656 20.70539063 389.669375 19.75976562 389.23242188 C3.23496611 381.41615115 -7.68644678 369.79592492 -14.45898438 352.51757812 C-15.64746342 349.19205567 -16.70436042 345.840389 -17.70898438 342.45507812 C-17.94311035 341.68446045 -18.17723633 340.91384277 -18.41845703 340.11987305 C-23.37276009 322.30036365 -23.89121805 304.08628273 -23.81201172 285.72265625 C-23.81284477 283.31390805 -23.81506788 280.90516 -23.81855774 278.49641418 C-23.82346514 273.35659195 -23.81949652 268.21688472 -23.80854416 263.07707214 C-23.79346084 255.64075383 -23.79852378 248.20458473 -23.81016059 240.76826578 C-23.8289539 228.68974786 -23.83827437 216.61124716 -23.83789062 204.53271484 C-23.83787318 203.81320131 -23.83785574 203.09368777 -23.83783777 202.3523708 C-23.83738445 194.30475534 -23.83403151 186.25714609 -23.82696533 178.20953369 C-23.82633295 177.48319256 -23.82570057 176.75685142 -23.82504902 176.00849995 C-23.82441646 175.28267489 -23.82378389 174.55684982 -23.82313216 173.80903006 C-23.8218623 172.34485468 -23.82059689 170.88067929 -23.81933594 169.41650391 C-23.81870775 168.6930342 -23.81807956 167.96956449 -23.81743233 167.22417146 C-23.80748262 155.16507865 -23.81678277 143.10608861 -23.84151995 131.04701757 C-23.8546473 124.29036993 -23.85782254 117.53399419 -23.83683395 110.77735901 C-23.81766252 104.44053112 -23.82103155 98.10412784 -23.84192467 91.76730919 C-23.84538506 89.44085533 -23.84024231 87.11437072 -23.82595634 84.78795815 C-23.80768813 81.6176714 -23.81995494 78.44892886 -23.8399353 75.27868652 C-23.82085588 73.89209611 -23.82085588 73.89209611 -23.80139101 72.47749376 C-23.86251102 67.99214158 -23.91940646 66.16253518 -26.88585854 62.61673737 C-27.73499006 61.92401482 -28.58412159 61.23129227 -29.45898438 60.51757812 C-33.105428 53.69442924 -32.91980097 46.74271288 -32.85009766 39.16381836 C-32.83404337 37.08770771 -32.84998841 35.01355077 -32.86914062 32.9375 C-32.88474582 23.91830572 -32.59239169 15.21663089 -26.27148438 8.20507812 C-25.74167969 7.59019531 -25.211875 6.9753125 -24.66601562 6.34179688 C-16.91756404 -0.0626755 -9.67932874 -0.06073427 0 0 Z " fill="#F3F4F4" transform="translate(56.458984375,-0.517578125)"/>
<path d="M0 0 C1.4561686 -0.00542755 2.91233169 -0.01255375 4.3684845 -0.02124023 C8.30451102 -0.03940158 12.24011592 -0.03243611 16.17614937 -0.01972389 C20.30571712 -0.00955874 24.43525008 -0.0189993 28.56481934 -0.02526855 C35.49819382 -0.03253477 42.43139757 -0.02298431 49.36474609 -0.00390625 C57.36740156 0.0178606 65.36964931 0.0108085 73.3722949 -0.01121187 C80.25748531 -0.02939523 87.14255336 -0.03190989 94.02776003 -0.0214572 C98.13374287 -0.01523835 102.2395344 -0.01434208 106.34550476 -0.02760315 C110.20675824 -0.03920397 114.06748883 -0.03105957 117.92868614 -0.00802612 C119.34114911 -0.00276148 120.75365649 -0.0042142 122.16610146 -0.01307678 C131.6951396 -0.06733095 138.02653772 0.50470887 145.35351562 7.01757812 C146.07539063 7.84257813 146.79726562 8.66757813 147.54101562 9.51757812 C148.09789062 10.11570312 148.65476563 10.71382812 149.22851562 11.33007812 C153.61068079 18.63368673 152.88099073 27.62816055 152.85668945 35.83569336 C152.85351792 38.07845185 152.87708541 40.31990278 152.90234375 42.5625 C152.90461631 44.00715982 152.90532044 45.45182313 152.90429688 46.89648438 C152.90727783 48.19142822 152.91025879 49.48637207 152.91333008 50.82055664 C152.49544521 54.9700849 151.48369442 57.83568697 149.54101562 61.51757812 C148.85609417 62.07152882 148.17117271 62.62547951 147.46549606 63.19621658 C144.68633242 66.54852066 144.98173215 69.77038468 145.02203369 73.93304443 C145.01453244 74.78992458 145.00703119 75.64680472 144.99930263 76.52965093 C144.97897549 79.40575416 144.98713794 82.28107282 144.99511719 85.15722656 C144.98638491 87.21691165 144.97590035 89.27658994 144.96379089 91.33625793 C144.93586808 96.93300372 144.9325276 102.52952885 144.93351078 108.12633419 C144.93038708 113.97337252 144.90478021 119.82031066 144.88153076 125.66729736 C144.84092559 136.74173578 144.82061942 147.81611524 144.80755687 158.89061666 C144.79170213 171.49753586 144.75329294 184.10435452 144.71296358 196.7112155 C144.63050278 222.64663892 144.57724933 248.58205249 144.54101562 274.51757812 C149.82101563 274.18757813 155.10101563 273.85757812 160.54101562 273.51757812 C160.19039062 272.23882812 159.83976563 270.96007812 159.47851562 269.64257812 C157.68065047 261.3176808 158.88410667 254.30784682 162.96289062 246.84179688 C167.61631747 239.98835882 174.97846648 234.66626477 183.14171124 232.98052502 C187.10384687 232.44092686 190.99516403 232.37588373 194.98457336 232.38386536 C195.82047805 232.3815998 196.65638275 232.37933424 197.51761788 232.37700003 C200.31099444 232.37068369 203.10432218 232.37148788 205.89770508 232.37231445 C207.90366681 232.36932148 209.90962797 232.36591864 211.91558838 232.36213684 C217.3598817 232.35330659 222.80415931 232.35095913 228.2484591 232.35032105 C231.65135566 232.34960999 235.05424822 232.3474746 238.45714378 232.34482384 C250.33300403 232.3355736 262.20885306 232.33148854 274.0847168 232.33227539 C285.14777641 232.33287608 296.21078725 232.32232514 307.27383453 232.30653173 C316.77805381 232.29344806 326.28225716 232.28809184 335.78648537 232.2887308 C341.46023186 232.28898555 347.133935 232.28614718 352.8076725 232.27555275 C358.14531251 232.26585792 363.48286784 232.26580213 368.82051086 232.27306938 C370.77599397 232.2741135 372.73148239 232.27176261 374.68695641 232.26570892 C377.36357207 232.25796152 380.0398973 232.26265193 382.71650696 232.27033997 C383.48384307 232.2651964 384.25117918 232.26005284 385.0417679 232.25475341 C395.00364957 232.31765564 402.97564803 234.52010519 410.45507812 241.23632812 C416.28488282 247.28940194 419.6246373 254.69373315 419.97851562 263.14257812 C419.49884905 272.38856496 415.50385273 279.88461885 408.85351562 286.20507812 C402.13406192 291.84195318 395.00502297 292.67883351 386.54101562 293.51757812 C386.31027344 294.66613281 386.07953125 295.8146875 385.84179688 296.99804688 C382.89223083 311.23812705 378.92290895 323.45302229 370.54101562 335.51757812 C370.04988281 336.25621094 369.55875 336.99484375 369.05273438 337.75585938 C367.94446237 339.38720962 366.75182893 340.96081816 365.54101562 342.51757812 C364.88101562 342.51757812 364.22101563 342.51757812 363.54101562 342.51757812 C363.28964844 343.0821875 363.03828125 343.64679688 362.77929688 344.22851562 C350.51936753 366.89198122 319.83547735 377.65985172 296.87890625 384.6484375 C278.55870951 389.92318988 259.48877904 392.01754685 240.54101562 393.51757812 C240.77997559 394.08935791 241.01893555 394.6611377 241.26513672 395.25024414 C248.18468991 411.87616917 254.72195138 428.63992313 261.16601562 445.45507812 C261.57277527 446.51429474 261.97953491 447.57351135 262.39862061 448.66482544 C263.56610361 451.70711693 264.73003326 454.75074042 265.89257812 457.79492188 C266.24628479 458.71679291 266.59999146 459.63866394 266.9644165 460.58847046 C267.28956238 461.44284698 267.61470825 462.29722351 267.94970703 463.17749023 C268.23407623 463.92212021 268.51844543 464.66675018 268.81143188 465.4339447 C271.57543743 473.32772579 271.31936165 480.46598274 267.93554688 488.15429688 C264.26023923 494.38275941 258.39446839 498.39632172 251.54101562 500.51757812 C248.29991767 500.93321918 245.0959172 500.92733851 241.83155823 500.90525818 C240.87158698 500.91064372 239.91161572 500.91602925 238.92255443 500.92157799 C235.71524658 500.93585206 232.50835175 500.92875508 229.30102539 500.92163086 C226.99772816 500.92733469 224.69443375 500.93429899 222.3911438 500.94242859 C216.14117973 500.96037326 209.89135597 500.95918914 203.64137387 500.9534862 C198.42257708 500.95039637 193.20380732 500.95648451 187.98501438 500.96252495 C174.96939484 500.97737579 161.95385411 500.97375304 148.93823486 500.96166164 C137.64376639 500.95172945 126.34946175 500.96467095 115.05501855 500.98859584 C103.4472516 501.01299848 91.83956773 501.02219234 80.2317757 501.01594311 C73.71911274 501.01257165 67.20658515 501.01500141 60.69394112 501.03219414 C54.56990651 501.04765539 48.44618484 501.04371643 42.32216263 501.02488899 C40.07600019 501.02120095 37.8298146 501.02431781 35.58367348 501.03477478 C32.51457369 501.04797106 29.44651199 501.03644849 26.37745667 501.01878357 C25.49116139 501.02838858 24.60486611 501.03799358 23.69171339 501.04788965 C16.43071866 500.96205407 11.33935778 498.87072948 5.79101562 494.20507812 C-0.40151605 486.80844306 -2.20853466 480.02963002 -1.45898438 470.51757812 C-0.71828907 466.86190649 0.36453777 463.35521929 1.50585938 459.80664062 C1.96937805 458.30816589 1.96937805 458.30816589 2.44226074 456.77941895 C3.44096503 453.56278539 4.45944068 450.35280939 5.47851562 447.14257812 C6.16793114 444.93445106 6.85615949 442.72595301 7.54321289 440.51708984 C10.49476847 431.05414519 13.4999411 421.60836632 16.54101562 412.17382812 C16.75617325 411.5062851 16.97133087 410.83874207 17.19300842 410.15097046 C18.15232495 407.18069876 19.12046807 404.21372679 20.10131836 401.25048828 C20.43075439 400.24808105 20.76019043 399.24567383 21.09960938 398.21289062 C21.38118896 397.36742676 21.66276855 396.52196289 21.95288086 395.65087891 C22.67390411 393.40437557 22.67390411 393.40437557 22.54101562 390.51757812 C21.62320313 390.09347656 20.70539063 389.669375 19.75976562 389.23242188 C3.23496611 381.41615115 -7.68644678 369.79592492 -14.45898438 352.51757812 C-15.64746342 349.19205567 -16.70436042 345.840389 -17.70898438 342.45507812 C-17.94311035 341.68446045 -18.17723633 340.91384277 -18.41845703 340.11987305 C-23.37276009 322.30036365 -23.89121805 304.08628273 -23.81201172 285.72265625 C-23.81284477 283.31390805 -23.81506788 280.90516 -23.81855774 278.49641418 C-23.82346514 273.35659195 -23.81949652 268.21688472 -23.80854416 263.07707214 C-23.79346084 255.64075383 -23.79852378 248.20458473 -23.81016059 240.76826578 C-23.8289539 228.68974786 -23.83827437 216.61124716 -23.83789062 204.53271484 C-23.83787318 203.81320131 -23.83785574 203.09368777 -23.83783777 202.3523708 C-23.83738445 194.30475534 -23.83403151 186.25714609 -23.82696533 178.20953369 C-23.82633295 177.48319256 -23.82570057 176.75685142 -23.82504902 176.00849995 C-23.82441646 175.28267489 -23.82378389 174.55684982 -23.82313216 173.80903006 C-23.8218623 172.34485468 -23.82059689 170.88067929 -23.81933594 169.41650391 C-23.81870775 168.6930342 -23.81807956 167.96956449 -23.81743233 167.22417146 C-23.80748262 155.16507865 -23.81678277 143.10608861 -23.84151995 131.04701757 C-23.8546473 124.29036993 -23.85782254 117.53399419 -23.83683395 110.77735901 C-23.81766252 104.44053112 -23.82103155 98.10412784 -23.84192467 91.76730919 C-23.84538506 89.44085533 -23.84024231 87.11437072 -23.82595634 84.78795815 C-23.80768813 81.6176714 -23.81995494 78.44892886 -23.8399353 75.27868652 C-23.82085588 73.89209611 -23.82085588 73.89209611 -23.80139101 72.47749376 C-23.86251102 67.99214158 -23.91940646 66.16253518 -26.88585854 62.61673737 C-27.73499006 61.92401482 -28.58412159 61.23129227 -29.45898438 60.51757812 C-33.105428 53.69442924 -32.91980097 46.74271288 -32.85009766 39.16381836 C-32.83404337 37.08770771 -32.84998841 35.01355077 -32.86914062 32.9375 C-32.88474582 23.91830572 -32.59239169 15.21663089 -26.27148438 8.20507812 C-25.74167969 7.59019531 -25.211875 6.9753125 -24.66601562 6.34179688 C-16.91756404 -0.0626755 -9.67932874 -0.06073427 0 0 Z M-6.45898438 67.51757812 C-6.45898438 136.15757812 -6.45898438 204.79757813 -6.45898438 275.51757812 C2.78101563 275.84757813 12.02101563 276.17757812 21.54101562 276.51757812 C25.54101562 280.51757812 25.54101562 280.51757812 25.85351562 284.08007812 C25.54101562 287.51757812 25.54101562 287.51757812 24.54101562 290.51757812 C21.23889283 291.61828572 18.60018284 291.72384885 15.12304688 291.83398438 C13.24262695 291.89682617 13.24262695 291.89682617 11.32421875 291.9609375 C10.01388672 292.00025391 8.70355469 292.03957031 7.35351562 292.08007812 C6.01821584 292.12328804 4.6829291 292.16690313 3.34765625 292.2109375 C0.07888266 292.31714314 -3.1899677 292.41918809 -6.45898438 292.51757812 C-6.59306681 313.66535748 -4.60941201 335.43499874 5.54101562 354.51757812 C6.20101562 354.51757812 6.86101563 354.51757812 7.54101562 354.51757812 C7.97414063 355.63132812 7.97414063 355.63132812 8.41601562 356.76757812 C10.3582468 361.51525433 11.98389644 364.23079803 16.04101562 367.51757812 C16.83507812 368.17757813 17.62914063 368.83757812 18.44726562 369.51757812 C27.95117567 375.66151997 36.98881369 376.13726329 47.97851562 376.20507812 C50.16312745 376.23423198 52.34753664 376.26876581 54.53199768 376.30757141 C56.49507128 376.34006644 58.45836572 376.35830068 60.42163086 376.37573242 C63.54101562 376.51757812 63.54101562 376.51757812 66.54101562 377.51757812 C66.84657789 378.90622246 67.1090237 380.30439076 67.35351562 381.70507812 C67.50433594 382.48238281 67.65515625 383.2596875 67.81054688 384.06054688 C67.54101562 386.51757812 67.54101562 386.51757812 65.72851562 389.26757812 C61.16149046 392.49136059 57.19557973 392.29703341 51.72851562 392.33007812 C50.25995117 392.3677832 50.25995117 392.3677832 48.76171875 392.40625 C46.35441366 392.46496476 43.94892001 392.50135793 41.54101562 392.51757812 C39.1978489 398.60271111 37.13396827 404.73939855 35.16601562 410.95507812 C34.83657959 411.99116211 34.50714355 413.02724609 34.16772461 414.09472656 C33.40736401 416.48720093 32.64791156 418.87996402 31.88916016 421.27294922 C30.61399961 425.2917209 29.33139633 429.30809941 28.04833984 433.32435608 C26.8612996 437.04160284 25.67674101 440.75963781 24.49261475 444.47781372 C23.90137818 446.33296202 23.30930064 448.18784252 22.71636963 450.04244995 C21.87540257 452.67397432 21.03789807 455.30657773 20.20117188 457.93945312 C19.94734238 458.73120438 19.69351288 459.52295563 19.43199158 460.33869934 C17.37299976 466.83760906 15.99743042 472.66840452 16.54101562 479.51757812 C17.9170874 481.91157209 17.9170874 481.91157209 20.54101562 483.51757812 C23.56092716 484.11020923 26.53675392 484.06137677 29.60618591 484.03224182 C30.9964703 484.04266011 30.9964703 484.04266011 32.41484123 484.05328888 C35.52802459 484.07162016 38.64045119 484.06127739 41.75366211 484.05102539 C43.98257011 484.05808076 46.21147332 484.06682415 48.44036865 484.07713318 C54.50026977 484.09967983 60.55991037 484.09667503 66.61983752 484.08781171 C71.67474273 484.08271007 76.72959862 484.0899877 81.78449875 484.09728378 C94.38949995 484.11527312 106.99434504 484.10885502 119.59933002 484.09111398 C130.54686372 484.07641831 141.49412294 484.09104262 152.4416213 484.11988414 C163.68203056 484.14927684 174.92231629 484.15974245 186.16277367 484.15070194 C192.47364643 484.14576563 198.7843058 484.14802661 205.0951519 484.16848946 C211.02878857 484.18680725 216.96191409 484.18093516 222.89552307 484.15629005 C225.07521368 484.15126985 227.25494297 484.15480307 229.43460274 484.16743851 C232.40661473 484.18330626 235.37693063 484.16847689 238.34886169 484.14576721 C239.21481427 484.15760294 240.08076685 484.16943867 240.97296041 484.18163306 C245.35105072 484.11350039 247.03055305 483.91867358 250.58995056 481.12188053 C252.67905246 478.74030312 252.67905246 478.74030312 252.95021057 476.22055054 C251.97545816 469.66781345 250.08786703 463.86132229 247.56835938 457.74414062 C247.16702286 456.74031342 246.76568634 455.73648621 246.35218811 454.70223999 C245.07299202 451.51068988 243.77620423 448.32664749 242.47851562 445.14257812 C241.63422865 443.04539976 240.79112036 440.94774647 239.94921875 438.84960938 C238.2908436 434.72227526 236.62598063 430.59766629 234.95458984 426.47558594 C232.6596678 420.81489318 230.37862102 415.14876543 228.10742188 409.47851562 C227.78934067 408.68659821 227.47125946 407.89468079 227.14353943 407.07876587 C226.84359573 406.32944794 226.54365204 405.58013 226.23461914 404.80810547 C225.978423 404.16884125 225.72222687 403.52957703 225.45826721 402.87094116 C224.11812562 399.43258276 222.83246508 395.97451327 221.54101562 392.51757812 C220.03217804 392.51210968 220.03217804 392.51210968 218.49285889 392.50653076 C209.01671432 392.46960146 199.54089534 392.41185158 190.06499863 392.33367538 C185.19322098 392.29415349 180.32162536 392.26198819 175.44970703 392.24658203 C170.74865283 392.2314464 166.04809889 392.19705621 161.34726715 392.1492691 C159.55315751 392.1344233 157.75897646 392.12653528 155.9648056 392.12569427 C153.4528815 392.12333242 150.94234877 392.09631772 148.43066406 392.06347656 C147.68763535 392.06850693 146.94460663 392.07353729 146.17906189 392.07872009 C142.70609335 392.00839174 140.86305956 391.7672275 138.08111572 389.61065674 C135.47226703 386.06509147 135.99312984 383.83217867 136.54101562 379.51757812 C138.29521839 377.43877951 139.7363025 376.63170887 142.43593979 376.24882507 C144.89249356 376.12726139 147.33098407 376.11568529 149.79052734 376.1328125 C150.72803329 376.12743973 151.66553925 376.12206696 152.63145447 376.11653137 C154.67153743 376.10674204 156.71166208 376.1038127 158.7517662 376.10688782 C162.01180233 376.11138482 165.27130064 376.09729985 168.53128052 376.07849121 C175.49284974 376.04166895 182.45436353 376.02805257 189.41601562 376.01757812 C251.28006544 377.12222677 251.28006544 377.12222677 310.54101562 361.51757812 C311.20149902 361.22512207 311.86198242 360.93266602 312.54248047 360.63134766 C338.42453432 348.93768592 356.06272996 331.71013792 366.50976562 305.04492188 C368.09765508 300.64146918 368.59045095 297.23322541 368.54101562 292.51757812 C367.88484766 292.51736076 367.2286797 292.51714339 366.55262786 292.51691943 C327.68091444 292.50340975 288.80930502 292.46395896 249.93765621 292.3907225 C245.27248404 292.38195553 240.60731149 292.37340576 235.94213867 292.36499023 C234.54898421 292.36247164 234.54898421 292.36247164 233.12768521 292.35990217 C218.08021709 292.33321705 203.03278707 292.324136 187.98529772 292.3215367 C172.55038082 292.31847952 157.11557424 292.29656013 141.68070716 292.25705355 C132.15304525 292.2332637 122.6256034 292.22426644 113.09791585 292.23406502 C106.56843177 292.23937215 100.03914527 292.22639254 93.50971744 292.19891522 C89.73993404 292.18359482 85.97059268 292.17645011 82.20079613 292.19098091 C78.11648613 292.2065137 74.03330217 292.18359621 69.9490509 292.15681458 C68.75353019 292.16748783 67.55800948 292.17816109 66.32626086 292.18915778 C57.40680902 292.07952068 57.40680902 292.07952068 54.28895092 289.17293835 C52.17982932 285.96888519 52.04964978 284.28471625 52.54101562 280.51757812 C52.87101562 279.52757812 53.20101562 278.53757812 53.54101562 277.51757812 C76.63430469 269.8198151 102.20103513 275.86529213 126.54101562 275.51757812 C126.54101562 206.87757813 126.54101562 138.23757812 126.54101562 67.51757812 C82.65101563 67.51757812 38.76101562 67.51757812 -6.45898438 67.51757812 Z " fill="#080808" transform="translate(56.458984375,-0.517578125)"/>
<path d="M0 0 C43.89 0 87.78 0 133 0 C133 68.64 133 137.28 133 208 C109.9 208.33 86.8 208.66 63 209 C62.01 209.33 61.02 209.66 60 210 C59.34 211.98 58.68 213.96 58 216 C50.08 216 42.16 216 34 216 C33.67 216.66 33.34 217.32 33 218 C32.731875 216.88625 32.46375 215.7725 32.1875 214.625 C31.34190981 210.78159049 31.34190981 210.78159049 28 209 C18.76 208.67 9.52 208.34 0 208 C0 139.36 0 70.72 0 0 Z " fill="#CED7DC" transform="translate(50,67)"/>
<path d="M0 0 C0.33 0 0.66 0 1 0 C1.42317708 2.01822917 1.84635417 4.03645833 2.26953125 6.0546875 C2.92308838 8.37046549 2.92308838 8.37046549 6 10 C8.62561843 10.2128051 11.14879 10.31124607 13.77612305 10.31884766 C14.56660034 10.32889328 15.35707764 10.3389389 16.17150879 10.34928894 C18.7849047 10.38018531 21.39819786 10.39717389 24.01171875 10.4140625 C25.8234801 10.43276897 27.6352327 10.45234199 29.44697571 10.4727478 C34.21610354 10.52413011 38.98525963 10.56372315 43.7545166 10.60089111 C48.62092109 10.64089257 53.48720738 10.69200249 58.35351562 10.7421875 C67.90226079 10.83901897 77.45107261 10.92340063 87 11 C92.3928683 24.41351888 97.69437106 37.85900561 102.90585327 51.34393311 C107.18042059 62.41674303 107.18042059 62.41674303 111.64453125 73.4140625 C112.01900391 74.31769531 112.39347656 75.22132813 112.77929688 76.15234375 C113.43425558 77.71978746 114.09969084 79.2829281 114.77929688 80.83984375 C116.86599483 85.84226638 118.87255753 91.55474975 118 97 C116.01048188 99.66335886 114.38971485 101.67040503 111.04991329 102.46249688 C108.62333872 102.64336595 106.2410592 102.66144593 103.80784607 102.62818909 C102.4152217 102.63883067 102.4152217 102.63883067 100.9944635 102.64968723 C97.88187488 102.66729673 94.77053008 102.64914702 91.65795898 102.63110352 C89.42728099 102.63624115 87.19660705 102.64352124 84.96594238 102.65278625 C78.90609339 102.671327 72.84668342 102.65834489 66.7868526 102.63869596 C60.45059351 102.62233245 54.11436273 102.63111906 47.77809143 102.63621521 C37.13786801 102.6407384 26.49783835 102.62495569 15.85766602 102.59692383 C4.90902408 102.56807967 -6.03936759 102.56100617 -16.98803711 102.57641602 C-30.1820268 102.59496063 -43.3758679 102.59324539 -56.56986809 102.57420158 C-61.61008734 102.56732023 -66.65021362 102.56837466 -71.69043159 102.57574654 C-77.62239832 102.58339386 -83.55400349 102.57133372 -89.48590851 102.54389763 C-91.6660117 102.53699675 -93.84614855 102.53693394 -96.02625084 102.54411316 C-98.99618395 102.55276815 -101.96499102 102.5369186 -104.93482971 102.5146637 C-105.80301301 102.52290446 -106.67119631 102.53114523 -107.56568819 102.53963572 C-111.37793464 102.48669969 -113.36994542 102.44645879 -116.54191494 100.19879055 C-119.10577393 96.33249422 -118.44278113 92.28132054 -117.59912109 87.93457031 C-117.02952205 85.64027834 -116.37391536 83.38710736 -115.6875 81.125 C-115.4289624 80.24642334 -115.1704248 79.36784668 -114.90405273 78.46264648 C-111.16710542 65.95025416 -107.0535626 53.54974169 -102.99757385 41.13806152 C-100.62320754 33.86377504 -98.30991162 26.57038356 -96.01782227 19.26977539 C-95.63388306 18.05342407 -95.63388306 18.05342407 -95.2421875 16.8125 C-95.0241748 16.11769531 -94.80616211 15.42289062 -94.58154297 14.70703125 C-94 13 -94 13 -93 11 C-92.39003174 10.99589111 -91.78006348 10.99178223 -91.15161133 10.98754883 C-88.37094208 10.95452425 -85.59243843 10.88387432 -82.8125 10.8125 C-81.85279297 10.80669922 -80.89308594 10.80089844 -79.90429688 10.79492188 C-73.93876947 10.61324095 -73.93876947 10.61324095 -68.88671875 7.57421875 C-67.01757869 5.17518823 -67.01757869 5.17518823 -66 3 C-44.22 3 -22.44 3 0 3 C0 2.01 0 1.02 0 0 Z " fill="#CED7DB" transform="translate(191,381)"/>
<path d="M0 0 C0.83802139 -0.00467997 1.67604278 -0.00935994 2.53945875 -0.01418173 C5.33998536 -0.02612206 8.14002175 -0.01667827 10.94055176 -0.00723267 C12.95138331 -0.01129879 14.96221263 -0.0166409 16.97303772 -0.02316284 C22.42957858 -0.03683731 27.88594923 -0.03153719 33.34249306 -0.02202559 C39.05320316 -0.01442972 44.7638987 -0.0214744 50.47460938 -0.02618408 C60.06468319 -0.03164183 69.65468769 -0.02444947 79.24475098 -0.01016235 C90.33176398 0.00616416 101.41861148 0.00087567 112.50562048 -0.01564157 C122.02509144 -0.02925584 131.54451257 -0.03117637 141.06399012 -0.02332556 C146.74938832 -0.01864874 152.43470873 -0.01802451 158.12010193 -0.02793503 C163.46517115 -0.0366015 168.81002699 -0.03058846 174.15507317 -0.01325226 C176.1166492 -0.00928573 178.0782432 -0.01042429 180.03981209 -0.01704025 C182.71762035 -0.02523919 185.39474504 -0.01495411 188.07250977 0 C188.8485844 -0.00669217 189.62465903 -0.01338433 190.42425108 -0.02027929 C196.46789415 0.04517568 200.47221673 1.47986315 204.91125488 5.56845093 C207.06590576 9.29765437 207.24675317 12.1693225 206.53625488 16.38095093 C205.28625488 19.13095093 205.28625488 19.13095093 203.53625488 21.38095093 C202.75142684 22.42505426 202.75142684 22.42505426 201.95074368 23.49025059 C198.52157565 26.17551017 195.33024879 25.93240873 191.1544342 25.88215637 C190.30108189 25.88769077 189.44772958 25.89322517 188.5685181 25.89892727 C185.70403476 25.91255962 182.84041884 25.89755058 179.97595215 25.88265991 C177.92438384 25.88644218 175.87281808 25.89194145 173.82125854 25.89903259 C168.24478308 25.91301738 162.66861511 25.90179572 157.09215665 25.88532138 C151.2608523 25.87149016 145.42956616 25.87792883 139.59825134 25.88145447 C129.80369094 25.88415833 120.00925296 25.87066655 110.21472168 25.84750366 C98.8868778 25.8209003 87.55923873 25.81914385 76.23137432 25.83089203 C65.34119834 25.84166775 54.45109653 25.83548385 43.56092644 25.82133675 C38.92346381 25.81557443 34.28605542 25.81566159 29.648592 25.82040215 C24.18781273 25.82517105 18.727258 25.81507365 13.26652145 25.79344749 C11.26099212 25.78787803 9.25544122 25.78741578 7.24991035 25.79240036 C4.51470996 25.79834638 1.78019758 25.78586104 -0.9549408 25.76863098 C-1.7508563 25.77464103 -2.54677181 25.78065107 -3.36680597 25.78684324 C-7.91989654 25.73459733 -10.8260917 25.16723478 -14.46374512 22.38095093 C-17.25010542 19.45466423 -17.87584089 17.45597698 -17.83874512 13.44345093 C-17.6923879 9.2966632 -17.34458 6.5498693 -14.46374512 3.38095093 C-9.65940577 0.40149819 -5.52138733 -0.04761145 0 0 Z " fill="#03A9F3" transform="translate(251.4637451171875,249.61904907226563)"/>
<path d="M0 0 C2.75 1.375 2.75 1.375 5 4 C5.70716072 6.34669259 6.097316 8.65745905 6.48046875 11.078125 C8.44827609 22.14519185 12.29608049 33.75252307 21.4453125 40.9140625 C29.65157038 46.15362657 36.77409034 48.58324125 46.375 49.875 C50.11648814 50.47132973 51.70509305 50.77211735 54.75 53.125 C56.33679544 56.7746295 57.18398452 60.1171191 56 64 C53.28238994 67.55219281 51.62484155 68.84444049 47.25 69.93359375 C45.83498437 70.11494623 44.41812617 70.28233526 43 70.4375 C32.51965876 71.98015387 23.33620629 74.57260775 16.375 83.0625 C15.20637619 84.67765038 14.07871909 86.32346861 13 88 C12.20142578 89.19689453 12.20142578 89.19689453 11.38671875 90.41796875 C9.81058515 93.35268511 9.12560931 95.99425996 8.4375 99.25 C8.06238281 100.95542969 8.06238281 100.95542969 7.6796875 102.6953125 C7.26607081 104.70634538 6.87052632 106.72135334 6.5078125 108.7421875 C5.44910994 114.40717488 5.44910994 114.40717488 3.4375 117.0625 C-0.39478673 118.53645643 -3.95734494 118.63282814 -8 118 C-10.4375 116.625 -10.4375 116.625 -12 114 C-12.61785186 111.65035899 -13.04398436 109.30503981 -13.453125 106.91015625 C-15.3495242 96.81860334 -18.30416013 85.67872561 -26.515625 78.93359375 C-34.34230424 73.69758906 -41.48031103 71.28110728 -50.75 70.125 C-54.74922562 69.54031789 -56.83562072 69.10234936 -60.3125 66.9375 C-62.62760338 62.90750523 -62.94265185 59.54341207 -62 55 C-59.51003326 51.68004434 -57.41800591 50.20816657 -53.3125 49.60546875 C-52.219375 49.46753906 -51.12625 49.32960937 -50 49.1875 C-38.64797561 47.46219233 -29.59673716 43.35897935 -21.90625 34.62109375 C-16.46400888 27.1380122 -14.66913121 18.88141916 -13.5234375 9.8671875 C-12.80826629 5.94975715 -11.67491566 3.91808981 -9 1 C-5.66660588 -0.11113137 -3.49519344 -0.34951934 0 0 Z " fill="#0E0C0C" transform="translate(395,7)"/>
<path d="M0 0 C3.91082892 3.80319143 4.78273655 7.52466204 5.5 12.75 C6.50913725 18.98978477 7.87884796 24.43471052 11 30 C11.44472656 30.82113281 11.88945312 31.64226562 12.34765625 32.48828125 C17.66312457 40.56829574 26.96468608 45.28940583 36 48 C39.36486202 48.5860153 42.68852897 49.03997846 46.08984375 49.34765625 C49.67620249 50.15157828 51.44577863 51.37649595 54 54 C54.6640625 56.18359375 54.6640625 56.18359375 54.625 58.4375 C54.64433594 59.54931641 54.64433594 59.54931641 54.6640625 60.68359375 C53.64359772 64.24321503 51.88732267 65.73084083 49 68 C46.3510337 68.71252022 44.06193331 69.17434981 41.375 69.5 C29.51944213 71.3551352 19.86009373 75.56833568 12.28125 85.1796875 C7.28090067 92.65569998 5.988077 100.81746105 4.58984375 109.56640625 C3.89181182 113.24632218 3.33383949 114.7437976 0.3125 117.0625 C-3.68303369 118.19331142 -6.01622538 118.18037766 -10 117 C-13.54703663 113.40773704 -14.54055941 110.71743458 -15.0625 105.75 C-16.23447577 96.86502132 -18.01536749 90.58733113 -23.79296875 83.62890625 C-25 82 -25 82 -25 80 C-25.53109375 79.74089844 -26.0621875 79.48179687 -26.609375 79.21484375 C-28.39073305 78.30961115 -30.14781257 77.3562943 -31.890625 76.37890625 C-39.79055042 72.10743495 -46.57993129 69.97745132 -55.50390625 68.8984375 C-59.71191816 67.81704896 -61.35157454 66.40155587 -64 63 C-64.6640625 60.9375 -64.6640625 60.9375 -64.625 59 C-64.63789063 58.360625 -64.65078125 57.72125 -64.6640625 57.0625 C-63.58204089 53.70186816 -61.73237045 52.1793474 -59 50 C-56.37382158 49.3125338 -54.0989199 48.87136085 -51.4375 48.5625 C-40.28073878 46.86092452 -29.57498585 42.33148825 -22.57421875 33.125 C-17.45994019 25.40077988 -15.53656439 17.56238393 -14.17724609 8.546875 C-13.70911618 5.69011735 -13.325328 3.44371125 -11.59375 1.08203125 C-7.65984389 -1.58878246 -4.44102206 -1.09077735 0 0 Z " fill="#0E0D0D" transform="translate(305,91)"/>
<path d="M0 0 C1.17625443 -0.01272446 2.35250885 -0.02544891 3.56440735 -0.03855896 C4.85127441 -0.03203308 6.13814148 -0.0255072 7.46400452 -0.01878357 C8.83578418 -0.02584249 10.20755606 -0.0345874 11.57931519 -0.04489136 C15.30256335 -0.06739946 19.02538671 -0.06444242 22.74867702 -0.05556989 C25.85758144 -0.05046058 28.96640599 -0.05775212 32.07530218 -0.06504196 C39.41001873 -0.08204568 46.74452725 -0.07847073 54.07923889 -0.06175232 C61.64455606 -0.04483117 69.20929624 -0.0606639 76.77455038 -0.0929752 C83.27151411 -0.11967193 89.76829823 -0.12694691 96.2653113 -0.11846012 C100.14496035 -0.11353095 104.02426224 -0.11574541 107.90386772 -0.13624763 C111.55257631 -0.1546064 115.20045517 -0.14864508 118.84911919 -0.12404823 C120.82456619 -0.11665468 122.80005735 -0.13389458 124.7754364 -0.15187073 C125.95451065 -0.13921677 127.1335849 -0.12656281 128.34838867 -0.11352539 C129.88229453 -0.11264593 129.88229453 -0.11264593 131.44718838 -0.1117487 C134.23768616 0.5146637 134.23768616 0.5146637 139.23768616 5.5146637 C139.23768616 14.7546637 139.23768616 23.9946637 139.23768616 33.5146637 C90.06768616 33.5146637 40.89768616 33.5146637 -9.76231384 33.5146637 C-9.76231384 0.02680623 -9.76231384 0.02680623 0 0 Z " fill="#F4F4F4" transform="translate(51.76231384277344,16.485336303710938)"/>
<path d="M0 0 C5.28 0 10.56 0 16 0 C16 68.64 16 137.28 16 208 C-6.11 208 -28.22 208 -51 208 C-51 207.67 -51 207.34 -51 207 C-34.17 207 -17.34 207 0 207 C0 138.69 0 70.38 0 0 Z " fill="#9C9C9D" transform="translate(167,67)"/>
<path d="M0 0 C4.10698932 1.04859302 6.11861941 2.59553839 8.9375 5.75 C9.875 8.9375 9.875 8.9375 8.9375 12.75 C-1.59273025 28.54534538 -20.91842568 36.52187925 -38.0625 42.75 C-38.784375 43.03746094 -39.50625 43.32492187 -40.25 43.62109375 C-47.35596215 46.29970839 -54.9454689 47.24024265 -62.42382812 48.35375977 C-64.36219555 48.6448377 -66.29810406 48.95241296 -68.23242188 49.26928711 C-76.91274385 50.62940798 -85.40617722 51.14667774 -94.1875 51.1875 C-96.11722656 51.23680664 -96.11722656 51.23680664 -98.0859375 51.28710938 C-99.93445313 51.29774414 -99.93445313 51.29774414 -101.8203125 51.30859375 C-103.47764404 51.32877563 -103.47764404 51.32877563 -105.16845703 51.34936523 C-108.0625 50.75 -108.0625 50.75 -110.41357422 48.43383789 C-112.61351919 44.8531457 -112.80012376 42.88069306 -112.0625 38.75 C-109.24136824 35.18591825 -107.50580107 33.95735775 -102.96972656 33.30566406 C-99.79211224 33.16713281 -96.627921 33.10316078 -93.4473877 33.11831665 C-89.94435933 33.12961375 -86.44344238 33.04928573 -82.94140625 32.97265625 C-81.90867081 32.95192299 -81.90867081 32.95192299 -80.85507202 32.93077087 C-56.6613109 32.36511884 -27.98186574 24.75649239 -10.0625 7.75 C-8.8072275 6.4216293 -7.55684445 5.08861297 -6.3125 3.75 C-4.01999573 1.40917597 -3.29122234 0.80601363 0 0 Z " fill="#060606" transform="translate(387.0625,307.25)"/>
<path d="M0 0 C2.75596222 2.92483245 3.78893313 5.94444795 4.9375 9.75 C6.10501013 13.46890291 7.32232503 16.80214854 9.25 20.1875 C11.46878248 24.38827791 11.77180991 28.3323877 11 33 C9.27310955 36.28931514 8.5579199 36.8140267 5 38 C3.47732581 38.10613405 1.95057318 38.15852598 0.42431641 38.17700195 C-0.50029388 38.18983719 -1.42490417 38.20267242 -2.37753296 38.21589661 C-3.87288071 38.22697701 -3.87288071 38.22697701 -5.3984375 38.23828125 C-6.4255484 38.246353 -7.4526593 38.25442474 -8.51089478 38.26274109 C-10.6846549 38.27657323 -12.85843666 38.28729927 -15.03222656 38.29516602 C-18.35523545 38.31239751 -21.6772542 38.35629428 -25 38.40039062 C-27.11197185 38.41051612 -29.22395216 38.41903267 -31.3359375 38.42578125 C-32.32878754 38.44328934 -33.32163757 38.46079742 -34.34457397 38.47883606 C-38.75345738 38.46498035 -41.27893578 38.44174683 -45.10400391 36.09838867 C-47.5861365 33.35129497 -47.95886685 32.37019839 -48.375 28.625 C-48 25 -48 25 -45.97192383 22.79785156 C-42.26479123 20.55523885 -39.2722601 20.4886494 -35.07421875 20.609375 C-33.95283257 20.61786469 -33.95283257 20.61786469 -32.80879211 20.62652588 C-30.43436089 20.64881532 -28.06147062 20.69899344 -25.6875 20.75 C-24.07228751 20.77007481 -22.45705123 20.78832387 -20.84179688 20.8046875 C-16.89394267 20.84865514 -12.94723208 20.91762739 -9 21 C-9.42659912 19.87851562 -9.42659912 19.87851562 -9.86181641 18.734375 C-10.22968262 17.74953125 -10.59754883 16.7646875 -10.9765625 15.75 C-11.34346191 14.77546875 -11.71036133 13.8009375 -12.08837891 12.796875 C-13.26032332 9.20132192 -13.46738158 6.73905262 -13 3 C-11 0 -11 0 -9.3125 -0.75 C-5.98379731 -1.10985975 -3.25632689 -0.76967726 0 0 Z " fill="#060708" transform="translate(273,429)"/>
<path d="M0 0 C1.31033203 -0.00515625 2.62066406 -0.0103125 3.97070312 -0.015625 C4.64866943 -0.00724609 5.32663574 0.00113281 6.02514648 0.00976562 C8.08892859 0.03115953 10.14921699 0.00995875 12.21289062 -0.015625 C13.52451172 -0.01046875 14.83613281 -0.0053125 16.1875 0 C17.38109131 0.00451172 18.57468262 0.00902344 19.80444336 0.01367188 C23.81848551 0.63278933 26.02007524 1.99779892 29.16015625 4.53125 C29.88671875 6.75 29.88671875 6.75 29.78515625 9.03125 C29.77742188 9.7840625 29.7696875 10.536875 29.76171875 11.3125 C28.8694262 14.60355303 28.04332402 15.63195254 25.16015625 17.53125 C21.5644738 18.02056252 18.03023145 17.90657884 14.41015625 17.78125 C12.93482422 17.75417969 12.93482422 17.75417969 11.4296875 17.7265625 C9.00551842 17.67949126 6.58333566 17.61375742 4.16015625 17.53125 C4.1758667 18.11616211 4.19157715 18.70107422 4.20776367 19.30371094 C4.27025892 21.96279164 4.30919194 24.62171764 4.34765625 27.28125 C4.37279297 28.20164062 4.39792969 29.12203125 4.42382812 30.0703125 C4.43349609 30.95976563 4.44316406 31.84921875 4.453125 32.765625 C4.46883545 33.58256836 4.4845459 34.39951172 4.50073242 35.24121094 C4.07855644 38.07992832 3.07788661 39.43015334 1.16015625 41.53125 C-0.70703125 42.31640625 -0.70703125 42.31640625 -2.71484375 42.59375 C-3.37226562 42.70847656 -4.0296875 42.82320312 -4.70703125 42.94140625 C-8.22639239 42.26460603 -9.61809326 40.25032664 -11.83984375 37.53125 C-12.34075596 34.79551321 -12.54427229 32.69075617 -12.50390625 29.96484375 C-12.50868988 29.2489357 -12.51347351 28.53302765 -12.5184021 27.79542542 C-12.52179147 26.28848054 -12.51265614 24.78146117 -12.49169922 23.2746582 C-12.46487172 20.9711516 -12.49149079 18.6724983 -12.5234375 16.36914062 C-12.52013399 14.90103095 -12.51372895 13.43292428 -12.50390625 11.96484375 C-12.5140274 11.27933945 -12.52414856 10.59383514 -12.53457642 9.88755798 C-12.44893909 6.38701618 -12.04558683 4.76788186 -9.72583008 2.09985352 C-6.23992161 0.20517778 -3.95771743 0.01497414 0 0 Z " fill="#050607" transform="translate(78.83984375,82.46875)"/>
<path d="M0 0 C5.61 0 11.22 0 17 0 C16.71645735 18.14672985 4.76817481 36.07211489 -7.85229492 48.44458008 C-18.43441607 58.32844284 -39.23137432 73 -54 73 C-54 72.34 -54 71.68 -54 71 C-52.25197854 70.18325204 -50.50149811 69.37176549 -48.75 68.5625 C-47.77546875 68.11003906 -46.8009375 67.65757812 -45.796875 67.19140625 C-43 66 -43 66 -40.6953125 65.44921875 C-40.13585937 65.30097656 -39.57640625 65.15273438 -39 65 C-38.71125 64.4225 -38.4225 63.845 -38.125 63.25 C-36.43487677 59.86975354 -34.01681343 58.26261008 -31 56 C-30.34 56 -29.68 56 -29 56 C-29 55.34 -29 54.68 -29 54 C-27.35546875 52.66796875 -27.35546875 52.66796875 -25.1875 51.1875 C-21.80506701 48.7426537 -19.99261359 46.70056809 -18 43 C-17.154375 42.175 -16.30875 41.35 -15.4375 40.5 C-12.99853729 37.99849978 -12.16406127 36.22355427 -11 33 C-10.34 32.67 -9.68 32.34 -9 32 C-8.42923857 29.88908866 -8.10868434 27.77467607 -7.7578125 25.6171875 C-7 23 -7 23 -5.0390625 19.72265625 C-2.70469007 15.80980341 -1.94458209 12.02095352 -1.25 7.5625 C-0.8375 5.066875 -0.425 2.57125 0 0 Z " fill="#CDD4D8" transform="translate(408,292)"/>
<path d="M0 0 C3.67655647 1.22551882 4.3596155 2.53922935 6.625 5.625 C10.52158832 10.66593954 14.79732688 14.36294611 20 18 C17.31512184 20.7662381 14.62345245 23.32687139 11.625 25.75 C7.40458948 29.29328972 4.23855483 33.57036574 1 38 C-1.573785 35.48762853 -3.91979695 32.91343486 -6.1875 30.125 C-9.89929924 25.81608523 -14.14622454 22.9056615 -19 20 C-17.87429979 16.62289938 -17.39430972 16.36888046 -14.5625 14.5 C-8.89995455 10.45092032 -4.53925048 5.22757945 0 0 Z " fill="#FADB06" transform="translate(391,48)"/>
<path d="M0 0 C3.68746867 1.22915622 4.44863905 2.60827905 6.75 5.6875 C10.50284362 10.52049787 14.42454346 15.21227173 20 18 C20 18.66 20 19.32 20 20 C18.53125 21.19140625 18.53125 21.19140625 16.5 22.5625 C10.67857454 26.76801377 5.97670206 32.0349469 2 38 C1.34 38 0.68 38 0 38 C-1.41015625 36.3125 -1.41015625 36.3125 -3.0625 34 C-7.06772489 28.68213838 -11.95177084 23.02411458 -18 20 C-16.82089473 16.46268418 -15.8449371 15.93172631 -12.875 13.8125 C-7.87791034 10.06069147 -2.83820611 5.67641222 0 0 Z " fill="#FBDB05" transform="translate(299,131)"/>
<path d="M0 0 C2.06066104 -0.1357683 4.12392757 -0.23233903 6.1875 -0.3125 C7.33605469 -0.37050781 8.48460937 -0.42851562 9.66796875 -0.48828125 C13 0 13 0 18 5 C18 14.24 18 23.48 18 33 C-31.17 33 -80.34 33 -131 33 C-131 32.67 -131 32.34 -131 32 C-87.11 32 -43.22 32 2 32 C3.21176732 15.43881265 3.21176732 15.43881265 0 0 Z " fill="#CDD3D7" transform="translate(173,17)"/>
<path d="M0 0 C6.03653699 -0.3221077 10.83245145 -0.56806924 16 3 C19.07326481 5.83063864 20.2594678 7.88977835 20.4375 12 C20.23515348 15.71201207 19.31353026 18.02546109 17 21 C16.21517195 22.04410333 16.21517195 22.04410333 15.41448879 23.10929966 C11.98532076 25.79455924 8.79399391 25.5514578 4.61817932 25.50120544 C3.76482701 25.50673984 2.91147469 25.51227424 2.03226322 25.51797634 C-0.83222012 25.53160869 -3.69583605 25.51659965 -6.56030273 25.50170898 C-8.61187104 25.50549125 -10.6634368 25.51099052 -12.71499634 25.51808167 C-18.29147181 25.53206645 -23.86763978 25.52084479 -29.44409823 25.50437045 C-35.27540258 25.49053924 -41.10668872 25.4969779 -46.93800354 25.50050354 C-56.73256394 25.5032074 -66.52700193 25.48971562 -76.3215332 25.46655273 C-87.64937709 25.43994937 -98.97701615 25.43819292 -110.30488056 25.4499411 C-121.19505654 25.46071683 -132.08515835 25.45453292 -142.97532845 25.44038582 C-147.61279107 25.43462351 -152.25019946 25.43471066 -156.88766289 25.43945122 C-162.34844215 25.44422012 -167.80899688 25.43412272 -173.26973343 25.41249657 C-175.27526276 25.4069271 -177.28081366 25.40646486 -179.28634453 25.41144943 C-182.02154492 25.41739545 -184.7560573 25.40491011 -187.49119568 25.38768005 C-188.28711119 25.3936901 -189.08302669 25.39970014 -189.90306085 25.40589231 C-194.44809612 25.35373883 -197.33991426 24.74435802 -201 22 C-197.94736336 21.01879536 -196.05263664 21.01879536 -193 22 C-193 22.66 -193 23.32 -193 24 C-129.31 24 -65.62 24 0 24 C1.77829993 19.55425017 2.27312808 17.51107816 2.25 12.9375 C2.25515625 11.91527344 2.2603125 10.89304687 2.265625 9.83984375 C1.9999031 6.99896407 1.33666751 5.46646981 0 3 C0 2.01 0 1.02 0 0 Z " fill="#0476BB" transform="translate(438,250)"/>
<path d="M0 0 C0.33 0 0.66 0 1 0 C1.4477671 3.85079706 1.36969215 5.49962077 -0.97070122 8.66734886 C-5.02983524 11.7930041 -7.79525858 11.70242225 -12.78128052 11.63491821 C-13.66548325 11.64271817 -14.54968599 11.65051812 -15.46068275 11.65855443 C-18.4235938 11.6784989 -21.38522394 11.66270033 -24.34814453 11.64697266 C-26.47207388 11.65374758 -28.59599735 11.66265 -30.71990967 11.67352295 C-36.48837235 11.69633478 -42.25638837 11.68747266 -48.02485895 11.67162752 C-54.05596286 11.65898173 -60.08702816 11.67070466 -66.11813354 11.67855835 C-76.24467854 11.68765734 -86.37104126 11.67565887 -96.49755859 11.65185547 C-108.2157917 11.6246292 -119.93359006 11.63346851 -131.65181267 11.6609875 C-141.70456902 11.68365284 -151.75719425 11.68689167 -161.80996788 11.67379415 C-167.8178234 11.6659874 -173.82547432 11.66499205 -179.8333168 11.68147659 C-185.47889642 11.69588504 -191.12391345 11.68596574 -196.76943207 11.65700531 C-198.84514047 11.65037575 -200.92089597 11.65232388 -202.99658585 11.66331863 C-205.82259903 11.67691152 -208.6467908 11.659935 -211.47268677 11.63491821 C-212.30098248 11.64607182 -213.12927819 11.65722543 -213.98267376 11.66871703 C-216.27147102 11.6292057 -216.27147102 11.6292057 -220 11 C-222.05248833 8.60484886 -222.05248833 8.60484886 -223 6 C-222.6875 3.6875 -222.6875 3.6875 -222 2 C-221.1028125 3.2065625 -221.1028125 3.2065625 -220.1875 4.4375 C-218.19052724 7.22327984 -218.19052724 7.22327984 -215 8 C-212.23800973 8.10456223 -209.50081911 8.15218367 -206.73843384 8.15390015 C-205.88593595 8.1582824 -205.03343806 8.16266465 -204.1551069 8.1671797 C-201.28780994 8.18057441 -198.42054372 8.18674802 -195.55322266 8.19287109 C-193.50180421 8.20077136 -191.45038715 8.20904026 -189.39897156 8.21765137 C-182.65401538 8.24387429 -175.90905298 8.25917659 -169.1640625 8.2734375 C-166.84404878 8.27879656 -164.52403509 8.28417406 -162.20402145 8.28956985 C-152.55669251 8.31119656 -142.90936525 8.32993511 -133.2620182 8.34119225 C-119.42403953 8.35744448 -105.58634107 8.39065576 -91.74846804 8.44759309 C-82.0244183 8.48624405 -72.30044366 8.50581904 -62.5763191 8.51111281 C-56.76505293 8.51477212 -50.9540856 8.52685562 -45.14290237 8.55921555 C-39.67798279 8.58921174 -34.21354421 8.59563813 -28.74855995 8.58383179 C-26.74139301 8.58361036 -24.73420427 8.59197205 -22.72711372 8.60948563 C-19.98933641 8.63207749 -17.25331816 8.6239292 -14.51553345 8.60800171 C-13.32063701 8.62882484 -13.32063701 8.62882484 -12.10160124 8.65006864 C-8.07709043 8.59227095 -6.22546328 8.17845161 -3.03027916 5.64949989 C-0.85535348 3.10943178 -0.85535348 3.10943178 0 0 Z " fill="#001931" transform="translate(457,266)"/>
<path d="M0 0 C1.20212889 -0.00384491 1.20212889 -0.00384491 2.42854321 -0.0077675 C5.10492293 -0.01269568 7.78073431 0.0037714 10.45706177 0.02018738 C12.37910448 0.02103386 14.30114816 0.0205581 16.22319031 0.01885986 C21.43556381 0.01799931 26.64773009 0.03563493 31.86005545 0.05658174 C37.30930117 0.07533842 42.75855168 0.07709819 48.20782471 0.08065796 C58.52434197 0.08998137 68.84076382 0.11459922 79.15723908 0.14470643 C90.90321144 0.17824117 102.64918836 0.19473413 114.39519668 0.20979273 C138.55535693 0.24114847 162.71543252 0.29391479 186.8755188 0.36076355 C186.5455188 1.35076355 186.2155188 2.34076355 185.8755188 3.36076355 C184.91860044 3.35799817 183.96168207 3.35523279 182.97576618 3.35238361 C159.65473461 3.28568282 136.33371546 3.23643786 113.01260853 3.20532703 C101.7345369 3.18988086 90.45652841 3.16883443 79.17849731 3.13444519 C69.34461936 3.10447388 59.51078716 3.08517221 49.6768648 3.07849807 C44.47346657 3.07459889 39.27019919 3.06548238 34.06684303 3.04357338 C29.16097703 3.02308595 24.25529475 3.01695435 19.34939003 3.02144051 C17.55683898 3.02062076 15.76428125 3.01472859 13.97176743 3.00314713 C3.79984262 2.94069559 -5.29255717 3.46188147 -15.1244812 6.36076355 C-15.4544812 9.99076355 -15.7844812 13.62076355 -16.1244812 17.36076355 C-15.4644812 17.36076355 -14.8044812 17.36076355 -14.1244812 17.36076355 C-14.4544812 18.35076355 -14.7844812 19.34076355 -15.1244812 20.36076355 C-17.61453797 17.87070678 -17.42151887 16.98605623 -17.4369812 13.54826355 C-17.33378179 9.33529934 -17.05524179 6.5846002 -14.1244812 3.36076355 C-9.40828482 0.45745983 -5.41625259 -0.063851 0 0 Z " fill="#1BA0DD" transform="translate(251.12448120117188,249.6392364501953)"/>
<path d="M0 0 C0.75 2.125 0.75 2.125 1 4 C0.0219062 3.5129959 -0.95618759 3.0259918 -1.96392059 2.52423 C-6.22048097 0.71173064 -9.99920147 0.57670166 -14.57727051 0.61231995 C-15.41544075 0.60693441 -16.253611 0.60154887 -17.11718035 0.59600013 C-19.91225605 0.58174751 -22.70685637 0.58881755 -25.50195312 0.59594727 C-27.51131062 0.59024235 -29.52066488 0.58327761 -31.53001404 0.57514954 C-36.97828968 0.55721798 -42.42640427 0.55838637 -47.87470055 0.56409192 C-52.42503979 0.56718331 -56.97534808 0.56109196 -61.52568293 0.55505317 C-72.26014948 0.54100999 -82.99453643 0.54256796 -93.72900391 0.55395508 C-104.80071571 0.56544044 -115.8721854 0.55135303 -126.9438653 0.5245586 C-136.45403324 0.50240549 -145.96412516 0.49576323 -155.47431707 0.50163502 C-161.15249779 0.50500618 -166.83052325 0.50257859 -172.50868225 0.48538399 C-177.84724723 0.46992289 -183.18545323 0.47386133 -188.52400398 0.49268913 C-190.48193862 0.49637708 -192.4398998 0.49326057 -194.39780998 0.48280334 C-197.07319705 0.46960608 -199.74739342 0.48112944 -202.42272949 0.49879456 C-203.19520916 0.48918955 -203.96768884 0.47958454 -204.76357698 0.46968848 C-210.23574704 0.54389635 -213.52558567 1.79855065 -218 5 C-219.26262462 8.22200571 -219.26262462 8.22200571 -219.4375 11.75 C-219.55996094 12.92046875 -219.68242187 14.0909375 -219.80859375 15.296875 C-219.87175781 16.18890625 -219.93492187 17.0809375 -220 18 C-222 17 -222 17 -223 14 C-223.06740865 12.43881572 -223.08514456 10.8749748 -223.0625 9.3125 C-223.05347656 8.50425781 -223.04445312 7.69601562 -223.03515625 6.86328125 C-223.02355469 6.24839844 -223.01195312 5.63351563 -223 5 C-221.68 4.67 -220.36 4.34 -219 4 C-219 3.01 -219 2.02 -219 1 C-215.11964007 -1.58982825 -211.02313871 -1.29510513 -206.53552246 -1.29193115 C-205.67329748 -1.29913469 -204.81107249 -1.30633822 -203.92271948 -1.31376004 C-201.02853494 -1.33547807 -198.13448796 -1.34300742 -195.24023438 -1.35058594 C-193.16733799 -1.36315595 -191.09444657 -1.37656853 -189.02156067 -1.39076233 C-183.38743194 -1.42667126 -177.75331513 -1.45000827 -172.11911201 -1.4705801 C-166.22858856 -1.49362998 -160.33811705 -1.52630035 -154.44763184 -1.55743408 C-144.5547916 -1.60809939 -134.66194083 -1.65037468 -124.76904297 -1.68798828 C-113.32414295 -1.73163143 -101.87938288 -1.78969775 -90.43458891 -1.85523582 C-80.616297 -1.91107494 -70.79798954 -1.95906458 -60.97962618 -2.0004847 C-55.11205154 -2.02525074 -49.24452444 -2.05277656 -43.3769989 -2.08739471 C-37.86132867 -2.11950556 -32.34570525 -2.14178188 -26.82996178 -2.15640068 C-24.80302623 -2.16339317 -22.7760993 -2.17384057 -20.74920082 -2.18795204 C-17.98756349 -2.20662242 -15.2261698 -2.21291712 -12.46447754 -2.21600342 C-11.25456217 -2.22853201 -11.25456217 -2.22853201 -10.02020407 -2.2413137 C-3.01712342 -2.2249327 -3.01712342 -2.2249327 0 0 Z " fill="#001127" transform="translate(454,250)"/>
<path d="M0 0 C2 2 2 2 2.3125 5.8125 C2.2082646 9.65531172 1.40006901 11.91419699 -1 15 C-1.5232187 15.69606889 -2.0464374 16.39213778 -2.58551121 17.10929966 C-6.01467924 19.79455924 -9.20600609 19.5514578 -13.38182068 19.50120544 C-14.23517299 19.50673984 -15.08852531 19.51227424 -15.96773678 19.51797634 C-18.83222012 19.53160869 -21.69583605 19.51659965 -24.56030273 19.50170898 C-26.61187104 19.50549125 -28.6634368 19.51099052 -30.71499634 19.51808167 C-36.29147181 19.53206645 -41.86763978 19.52084479 -47.44409823 19.50437045 C-53.27540258 19.49053924 -59.10668872 19.4969779 -64.93800354 19.50050354 C-74.73256394 19.5032074 -84.52700193 19.48971562 -94.3215332 19.46655273 C-105.64937709 19.43994937 -116.97701615 19.43819292 -128.30488056 19.4499411 C-139.19505654 19.46071683 -150.08515835 19.45453292 -160.97532845 19.44038582 C-165.61279107 19.43462351 -170.25019946 19.43471066 -174.88766289 19.43945122 C-180.34844215 19.44422012 -185.80899688 19.43412272 -191.26973343 19.41249657 C-193.27526276 19.4069271 -195.28081366 19.40646486 -197.28634453 19.41144943 C-200.02154492 19.41739545 -202.7560573 19.40491011 -205.49119568 19.38768005 C-206.28711119 19.3936901 -207.08302669 19.39970014 -207.90306085 19.40589231 C-212.44809612 19.35373883 -215.33991426 18.74435802 -219 16 C-215.94736336 15.01879536 -214.05263664 15.01879536 -211 16 C-211 16.66 -211 17.32 -211 18 C-143.68 18 -76.36 18 -7 18 C-7 17.34 -7 16.68 -7 16 C-6.01 16 -5.02 16 -4 16 C-4 14.68 -4 13.36 -4 12 C-3.01 11.67 -2.02 11.34 -1 11 C-0.67 7.37 -0.34 3.74 0 0 Z " fill="#127AA7" transform="translate(456,256)"/>
<path d="M0 0 C0.99 0.33 1.98 0.66 3 1 C2.34 1.66 1.68 2.32 1 3 C0.79440678 5.75744059 0.71491497 8.41565313 0.7215271 11.17495728 C0.7157347 12.03012857 0.7099423 12.88529986 0.70397437 13.76638544 C0.6868908 16.64849373 0.68409072 19.53044272 0.68115234 22.41259766 C0.67185992 24.47198381 0.66169229 26.53136618 0.65071106 28.59074402 C0.62331958 34.19581067 0.60823464 39.80085207 0.59528303 45.40596819 C0.57969238 51.2583358 0.5528893 57.11065151 0.5272522 62.96298218 C0.48039219 74.05163548 0.44368311 85.14029848 0.41057932 96.22900045 C0.37240886 108.85036229 0.32298548 121.47167211 0.27259517 134.09299016 C0.16916794 160.06195565 0.08034191 186.03095372 0 212 C5.28 211.67 10.56 211.34 16 211 C16.33 210.01 16.66 209.02 17 208 C17.33 209.65 17.66 211.3 18 213 C11.73 213 5.46 213 -1 213 C-1.02311552 185.37590493 -1.04097744 157.75181217 -1.05181217 130.12770939 C-1.05697588 117.30234003 -1.06402 104.47697677 -1.07543945 91.65161133 C-1.08538401 80.47743251 -1.09185288 69.30325811 -1.09408849 58.12907499 C-1.09539599 52.20846633 -1.09848429 46.28787032 -1.10573006 40.3672657 C-1.11248668 34.80157696 -1.1146177 29.23590615 -1.11310768 23.6702137 C-1.11338417 21.62107242 -1.11539141 19.57193057 -1.11920547 17.52279282 C-1.12413713 14.7380375 -1.12300025 11.95335107 -1.12025452 9.16859436 C-1.12316736 8.34662616 -1.1260802 7.52465797 -1.12908131 6.67778164 C-1.11412121 1.11412121 -1.11412121 1.11412121 0 0 Z " fill="#3F3A3E" transform="translate(201,62)"/>
<path d="M0 0 C2.475 0.495 2.475 0.495 5 1 C4.67 2.32 4.34 3.64 4 5 C3.34 5 2.68 5 2 5 C1.731875 5.969375 1.46375 6.93875 1.1875 7.9375 C0.795625 8.948125 0.40375 9.95875 0 11 C-0.99 11.33 -1.98 11.66 -3 12 C-4.20882096 14.00016466 -4.20882096 14.00016466 -5 16 C-5.66 15.67 -6.32 15.34 -7 15 C-7 14 -7 13 -7 12 C-9.17029425 14.17029425 -11.04155778 16.63982604 -13 19 C-15.475 18.01 -15.475 18.01 -18 17 C-17.29230469 16.44441406 -16.58460938 15.88882812 -15.85546875 15.31640625 C-12.92412501 12.93844888 -10.11171825 10.46939864 -7.3125 7.9375 C-6.35988281 7.08027344 -5.40726562 6.22304688 -4.42578125 5.33984375 C-1.87907886 3.05019595 -1.87907886 3.05019595 0 0 Z " fill="#EFF4F6" transform="translate(395,320)"/>
<path d="M0 0 C1.65 0.66 3.3 1.32 5 2 C5 2.66 5 3.32 5 4 C3.53125 5.19140625 3.53125 5.19140625 1.5 6.5625 C-4.32142546 10.76801377 -9.02329794 16.0349469 -13 22 C-13.66 22 -14.32 22 -15 22 C-16.5078125 20.03125 -16.5078125 20.03125 -18.125 17.5 C-18.93324219 16.24703125 -18.93324219 16.24703125 -19.7578125 14.96875 C-20.37269531 13.99421875 -20.37269531 13.99421875 -21 13 C-18.03 13.495 -18.03 13.495 -15 14 C-15 15.32 -15 16.64 -15 18 C-14.34 18 -13.68 18 -13 18 C-12.67 16.68 -12.34 15.36 -12 14 C-11.01 14 -10.02 14 -9 14 C-9 12.68 -9 11.36 -9 10 C-7.68 10 -6.36 10 -5 10 C-5 8.35 -5 6.7 -5 5 C-3.02 4.67 -1.04 4.34 1 4 C0.67 2.68 0.34 1.36 0 0 Z " fill="#E3CE24" transform="translate(314,147)"/>
<path d="M0 0 C1.02522011 -0.0010952 1.02522011 -0.0010952 2.07115173 -0.00221252 C4.31738255 0.0012551 6.56150723 0.04007054 8.80737305 0.0793457 C10.36963264 0.08867693 11.93190692 0.09579158 13.4941864 0.1007843 C17.59629054 0.1198302 21.69750253 0.16890883 25.79925537 0.2243042 C29.98868746 0.27554952 34.17826442 0.29830953 38.36791992 0.32348633 C46.58121892 0.37703115 54.79379422 0.46231325 63.0065918 0.56762695 C63.0065918 0.89762695 63.0065918 1.22762695 63.0065918 1.56762695 C40.2365918 1.56762695 17.4665918 1.56762695 -5.9934082 1.56762695 C-5.9934082 2.22762695 -5.9934082 2.88762695 -5.9934082 3.56762695 C-6.6534082 3.56762695 -7.3134082 3.56762695 -7.9934082 3.56762695 C-8.3234082 4.55762695 -8.6534082 5.54762695 -8.9934082 6.56762695 C-9.6534082 6.56762695 -10.3134082 6.56762695 -10.9934082 6.56762695 C-10.9934082 8.21762695 -10.9934082 9.86762695 -10.9934082 11.56762695 C-11.3234082 11.56762695 -11.6534082 11.56762695 -11.9934082 11.56762695 C-12.44987823 7.64198468 -12.38426178 6.06905078 -9.91096497 2.89607239 C-6.30579166 0.01885353 -4.56633036 -0.04113811 0 0 Z " fill="#2B2E30" transform="translate(119.993408203125,274.432373046875)"/>
<path d="M0 0 C0.79921875 0.00644531 1.5984375 0.01289063 2.421875 0.01953125 C3.246875 0.03628906 4.071875 0.05304688 4.921875 0.0703125 C5.76234375 0.07933594 6.6028125 0.08835938 7.46875 0.09765625 C9.53658104 0.12115433 11.60426495 0.15702342 13.671875 0.1953125 C13.671875 0.5253125 13.671875 0.8553125 13.671875 1.1953125 C12.74246094 1.22109375 11.81304687 1.246875 10.85546875 1.2734375 C0.8416374 1.37194664 0.8416374 1.37194664 -7.328125 6.1953125 C-8.49561587 10.50276739 -9.0133703 14.75020527 -9.328125 19.1953125 C-11.328125 18.1953125 -11.328125 18.1953125 -12.328125 15.1953125 C-12.39553365 13.63412822 -12.41326956 12.0702873 -12.390625 10.5078125 C-12.38160156 9.69957031 -12.37257812 8.89132812 -12.36328125 8.05859375 C-12.35167969 7.44371094 -12.34007812 6.82882813 -12.328125 6.1953125 C-11.008125 5.8653125 -9.688125 5.5353125 -8.328125 5.1953125 C-8.328125 4.2053125 -8.328125 3.2153125 -8.328125 2.1953125 C-5.40988256 0.52856929 -3.35218121 -0.0478883 0 0 Z " fill="#031930" transform="translate(243.328125,248.8046875)"/>
<path d="M0 0 C0.680625 0.70125 1.36125 1.4025 2.0625 2.125 C4.6968409 4.76684614 7.49197469 7.1765399 10.3515625 9.5703125 C11.96850013 10.97268021 13.48653997 12.48653997 15 14 C12.69 15.65 10.38 17.3 8 19 C8.33 17.02 8.66 15.04 9 13 C8.39671875 12.7628125 7.7934375 12.525625 7.171875 12.28125 C4.49808164 10.70390428 3.68501698 9.22830389 2.25 6.5 C1.82203125 5.7059375 1.3940625 4.911875 0.953125 4.09375 C0 2 0 2 0 0 Z " fill="#EDD219" transform="translate(396,53)"/>
<path d="M0 0 C2 2 2 2 2.3125 5.8125 C2.17924115 10.72530964 0.31602366 13.34278502 -2.6875 17.125 C-5.81438368 19.66031109 -7.78166883 19.40873325 -11.75 19.25 C-12.92046875 19.21390625 -14.0909375 19.1778125 -15.296875 19.140625 C-16.18890625 19.09421875 -17.0809375 19.0478125 -18 19 C-18 18.67 -18 18.34 -18 18 C-14.37 18 -10.74 18 -7 18 C-7 17.34 -7 16.68 -7 16 C-6.01 16 -5.02 16 -4 16 C-4 14.68 -4 13.36 -4 12 C-3.01 11.67 -2.02 11.34 -1 11 C-0.67 7.37 -0.34 3.74 0 0 Z " fill="#16618D" transform="translate(456,256)"/>
<path d="M0 0 C4 4 8 8 12 12 C11.401875 12.144375 10.80375 12.28875 10.1875 12.4375 C8.43849596 12.8872439 6.71322977 13.42892341 5 14 C5 12.35 5 10.7 5 9 C4.34 8.67 3.68 8.34 3 8 C3.33 7.34 3.66 6.68 4 6 C2.68 6 1.36 6 0 6 C0 4.02 0 2.04 0 0 Z " fill="#E9D21F" transform="translate(302,134)"/>
<path d="M0 0 C2.57966596 2.57966596 3.33609844 5.09307892 4.625 8.5 C5.29402344 10.24796875 5.29402344 10.24796875 5.9765625 12.03125 C7 15 7 15 7 17 C6.01 16.67 5.02 16.34 4 16 C3.67 15.01 3.34 14.02 3 13 C2.01 12.34 1.02 11.68 0 11 C-0.1875 7.875 -0.1875 7.875 0 5 C-0.66 4.67 -1.32 4.34 -2 4 C-1.34 2.68 -0.68 1.36 0 0 Z " fill="#BBC2C5" transform="translate(291,428)"/>
<path d="M0 0 C0 3 0 3 -1.3125 4.38671875 C-2.875 5.59114583 -4.4375 6.79557292 -6 8 C-5.67 8.66 -5.34 9.32 -5 10 C-7.97 12.475 -7.97 12.475 -11 15 C-12.32 14.01 -13.64 13.02 -15 12 C-14.25234375 11.46890625 -13.5046875 10.9378125 -12.734375 10.390625 C-11.74953125 9.68421875 -10.7646875 8.9778125 -9.75 8.25 C-8.77546875 7.55390625 -7.8009375 6.8578125 -6.796875 6.140625 C-4.30766704 4.23547701 -2.15028061 2.27315379 0 0 Z " fill="#DFDFE0" transform="translate(392,324)"/>
<path d="M0 0 C-1.875 3.875 -1.875 3.875 -3 5 C-3.15888092 7.28988781 -3.25138073 9.58443441 -3.31640625 11.87890625 C-3.33718735 12.5655687 -3.35796844 13.25223114 -3.37937927 13.95970154 C-3.44494143 16.16052935 -3.50379015 18.36147975 -3.5625 20.5625 C-3.60567892 22.05144514 -3.649293 23.54037773 -3.69335938 25.02929688 C-3.8006293 28.68606553 -3.90187772 32.34297318 -4 36 C-4.33 36 -4.66 36 -5 36 C-5.07416067 31.35526018 -5.12860615 26.71086501 -5.16479492 22.06567383 C-5.17988094 20.48553464 -5.2003525 18.90543731 -5.22631836 17.32543945 C-5.26271126 15.05409415 -5.27972762 12.78330241 -5.29296875 10.51171875 C-5.30845261 9.80536789 -5.32393646 9.09901703 -5.33988953 8.3712616 C-5.34090037 5.42493352 -5.33847875 3.47844894 -3.60668945 1.03051758 C-2 0 -2 0 0 0 Z " fill="#1E2227" transform="translate(72,84)"/>
<path d="M0 0 C3 1 3 1 4.1875 3.0625 C4.455625 3.701875 4.72375 4.34125 5 5 C4.113125 4.896875 3.22625 4.79375 2.3125 4.6875 C-1.17583536 4.70480941 -1.17583536 4.70480941 -3.8125 7.3125 C-6.15007563 9.86085624 -6.15007563 9.86085624 -7 13 C-8.32 12.67 -9.64 12.34 -11 12 C-7.37 8.04 -3.74 4.08 0 0 Z " fill="#CEBB2A" transform="translate(391,48)"/>
<path d="M0 0 C0 3.52032428 -0.70351351 4.4385343 -3 7 C-3.66 7 -4.32 7 -5 7 C-5 7.66 -5 8.32 -5 9 C-4.01 9.33 -3.02 9.66 -2 10 C-2 10.99 -2 11.98 -2 13 C-4.49361571 11.79618552 -6.68143083 10.54571278 -9 9 C-7.83709195 5.51127585 -6.86032391 4.90023136 -3.9375 2.8125 C-3.20402344 2.28269531 -2.47054688 1.75289062 -1.71484375 1.20703125 C-1.14894531 0.80871094 -0.58304687 0.41039062 0 0 Z " fill="#D6C42D" transform="translate(290,142)"/>
<path d="M0 0 C0.33 0 0.66 0 1 0 C1.30786236 3.38648598 1.45695658 5.33360498 -0.5 8.1875 C-3.98323479 10.71284523 -7.12748145 10.43937364 -11.25 10.25 C-12.36761719 10.22292969 -12.36761719 10.22292969 -13.5078125 10.1953125 C-15.33909701 10.14835649 -17.16971649 10.07661652 -19 10 C-19 9.67 -19 9.34 -19 9 C-17.67935547 8.97873047 -17.67935547 8.97873047 -16.33203125 8.95703125 C-8.9415169 9.00486084 -8.9415169 9.00486084 -2.75 5.625 C-0.87392291 3.06029774 -0.87392291 3.06029774 0 0 Z " fill="#01162E" transform="translate(457,266)"/>
<path d="M0 0 C0.66 0.33 1.32 0.66 2 1 C-1.64779874 6.66037736 -1.64779874 6.66037736 -3.75 8.6875 C-5.34482759 10.05998563 -5.34482759 10.05998563 -5 13 C-5.66 13 -6.32 13 -7 13 C-7.33 13.66 -7.66 14.32 -8 15 C-9.32 14.67 -10.64 14.34 -12 14 C-10.18804029 11.85370835 -8.37545906 9.70794722 -6.5625 7.5625 C-6.04623047 6.95083984 -5.52996094 6.33917969 -4.99804688 5.70898438 C-1.11328125 1.11328125 -1.11328125 1.11328125 0 0 Z " fill="#271A05" transform="translate(403,72)"/>
<path d="M0 0 C1.65 0 3.3 0 5 0 C-1.15034169 8.44646925 -1.15034169 8.44646925 -5 12 C-8 8.25 -8 8.25 -8 6 C-5.03 6.495 -5.03 6.495 -2 7 C-1.67 6.01 -1.34 5.02 -1 4 C-0.34 4 0.32 4 1 4 C0.67 2.68 0.34 1.36 0 0 Z " fill="#DAC62E" transform="translate(396,74)"/>
<path d="M0 0 C0.87914062 0.02255859 1.75828125 0.04511719 2.6640625 0.06835938 C4.81845007 0.12690252 6.9719531 0.21657217 9.125 0.3125 C9.125 0.6425 9.125 0.9725 9.125 1.3125 C7.88363281 1.32667969 6.64226562 1.34085937 5.36328125 1.35546875 C3.72131757 1.402382 2.07939163 1.45062932 0.4375 1.5 C-0.37912109 1.50580078 -1.19574219 1.51160156 -2.03710938 1.51757812 C-6.42540411 1.6774755 -8.34673428 1.89860108 -11.90625 4.6875 C-13.91457707 7.36526943 -14.59196404 9.0104138 -14.875 12.3125 C-15.205 12.3125 -15.535 12.3125 -15.875 12.3125 C-16.25 9.125 -16.25 9.125 -15.875 5.3125 C-11.02129141 -0.17156036 -7.06968078 -0.34603106 0 0 Z " fill="#5F5F5F" transform="translate(290.875,340.6875)"/>
<path d="M0 0 C6.05278224 -0.32297455 10.78023727 -0.52333984 16 3 C16.99 4.485 16.99 4.485 18 6 C15.65865324 5.45968921 13.45581464 4.80651187 11.1875 4 C7.94058074 2.88056596 7.94058074 2.88056596 4.1875 2.5 C3.135625 2.335 2.08375 2.17 1 2 C0.67 1.34 0.34 0.68 0 0 Z " fill="#1170A6" transform="translate(438,250)"/>
<path d="M0 0 C0.33 0 0.66 0 1 0 C1 1.98 1 3.96 1 6 C-0.0828125 6.0928125 -0.0828125 6.0928125 -1.1875 6.1875 C-4.84657625 7.24456647 -6.49211602 9.20550071 -9 12 C-9.99 11.67 -10.98 11.34 -12 11 C-4.88610478 3.33257403 -4.88610478 3.33257403 0 2 C0 1.34 0 0.68 0 0 Z " fill="#241905" transform="translate(319,149)"/>
<path d="M0 0 C2.475 0.495 2.475 0.495 5 1 C5.13510253 3.91821463 5.2341305 6.83017652 5.3125 9.75 C5.35439453 10.575 5.39628906 11.4 5.43945312 12.25 C5.48686732 14.601744 5.47157594 16.69402157 5 19 C2.48046875 21.578125 2.48046875 21.578125 0 23 C0.32484375 22.29746094 0.6496875 21.59492188 0.984375 20.87109375 C3.30229277 14.31851851 2.81308683 6.32944538 0 0 Z " fill="#0387CE" transform="translate(438,251)"/>
<path d="M0 0 C0.33 0 0.66 0 1 0 C1.3125 2.6875 1.3125 2.6875 1 6 C-1.5 8.6875 -1.5 8.6875 -4 11 C-4 11.99 -4 12.98 -4 14 C-4.99 14.66 -5.98 15.32 -7 16 C-7.99 15.67 -8.98 15.34 -10 15 C-9.52949219 14.41992188 -9.05898438 13.83984375 -8.57421875 13.2421875 C-5.17861407 8.98186362 -2.18021001 5.00165825 0 0 Z " fill="#423340" transform="translate(288,114)"/>
<path d="M0 0 C0.99808262 3.21937927 1.01849014 5.84301752 0.6875 9.1875 C0.60886719 10.06792969 0.53023438 10.94835937 0.44921875 11.85546875 C0.30097656 12.56316406 0.15273437 13.27085937 0 14 C-0.99 14.495 -0.99 14.495 -2 15 C-2.40729228 17.32156597 -2.74438677 19.6568787 -3 22 C-3.33 22 -3.66 22 -4 22 C-4.62599202 14.17509977 -2.32514129 7.39062767 0 0 Z " fill="#AAB0B3" transform="translate(77,457)"/>
<path d="M0 0 C0.99 0 1.98 0 3 0 C1.64199529 2.96530497 0.07571737 5.29131271 -2.0625 7.75 C-2.85333984 8.67039063 -2.85333984 8.67039063 -3.66015625 9.609375 C-4.10230469 10.06828125 -4.54445313 10.5271875 -5 11 C-5.33 11 -5.66 11 -6 11 C-6.3125 8.8125 -6.3125 8.8125 -6 6 C-3.5625 3.25 -3.5625 3.25 -1 1 C-0.67 0.67 -0.34 0.34 0 0 Z " fill="#241C01" transform="translate(296,131)"/>
<path d="M0 0 C1.65 0.33 3.3 0.66 5 1 C4.67 2.32 4.34 3.64 4 5 C3.34 5 2.68 5 2 5 C1.71125 5.969375 1.4225 6.93875 1.125 7.9375 C0 11 0 11 -2 12 C-0.125 6.25 -0.125 6.25 1 4 C0.01 3.67 -0.98 3.34 -2 3 C-1.34 2.01 -0.68 1.02 0 0 Z " fill="#E0E4E7" transform="translate(395,320)"/>
<path d="M0 0 C0 0.33 0 0.66 0 1 C-1.98 1 -3.96 1 -6 1 C-6.33 1.99 -6.66 2.98 -7 4 C-7.66 4.4125 -8.32 4.825 -9 5.25 C-11.90989004 7.79615378 -11.71839491 10.26873252 -12 14 C-12.33 14 -12.66 14 -13 14 C-13.62790698 5.8372093 -13.62790698 5.8372093 -11.125 2.5 C-7.27661896 -0.21650426 -4.692242 -0.08689337 0 0 Z " fill="#615D5F" transform="translate(346,57)"/>
<path d="M0 0 C0.66 0.66 1.32 1.32 2 2 C1.01 2 0.02 2 -1 2 C-1.33 3.32 -1.66 4.64 -2 6 C-2.66 6 -3.32 6 -4 6 C-4 4.68 -4 3.36 -4 2 C-5.32 2 -6.64 2 -8 2 C-8.33 2.99 -8.66 3.98 -9 5 C-9.66 5 -10.32 5 -11 5 C-10.1875 3.0625 -10.1875 3.0625 -9 1 C-5.75778445 -0.08073852 -3.39597063 -0.21676408 0 0 Z " fill="#737072" transform="translate(395,7)"/>
<path d="M0 0 C0 0.33 0 0.66 0 1 C-3.96 1 -7.92 1 -12 1 C-12 1.66 -12 2.32 -12 3 C-12.66 3 -13.32 3 -14 3 C-14.33 3.99 -14.66 4.98 -15 6 C-15.66 6 -16.32 6 -17 6 C-17 7.65 -17 9.3 -17 11 C-17.33 11 -17.66 11 -18 11 C-18.43440896 7.26408298 -18.23528279 5.40085216 -16.3125 2.125 C-11.16226724 -1.1789229 -5.95585939 -0.39240655 0 0 Z " fill="#383D3F" transform="translate(126,275)"/>
<path d="M0 0 C2.475 0.495 2.475 0.495 5 1 C5 1.99 5 2.98 5 4 C5.99 4 6.98 4 8 4 C8.33 5.98 8.66 7.96 9 10 C7.86800647 9.0919838 6.74467637 8.17316174 5.625 7.25 C4.99851562 6.73953125 4.37203125 6.2290625 3.7265625 5.703125 C1.91687682 3.91800519 0.99882545 2.32050356 0 0 Z " fill="#271A01" transform="translate(304,135)"/>
<path d="M0 0 C-0.33 1.65 -0.66 3.3 -1 5 C-1.66 5 -2.32 5 -3 5 C-3 6.65 -3 8.3 -3 10 C-3.33 10 -3.66 10 -4 10 C-4.103125 8.906875 -4.20625 7.81375 -4.3125 6.6875 C-4.97307727 3.14440371 -5.2027092 2.06756277 -8 0 C-4.94736336 -0.98120464 -3.05263664 -0.98120464 0 0 Z " fill="#BDC3C8" transform="translate(112,84)"/>
<path d="M0 0 C2.475 0.99 2.475 0.99 5 2 C5 2.66 5 3.32 5 4 C3.25 5.2890625 3.25 5.2890625 1 6.625 C0.2575 7.07101563 -0.485 7.51703125 -1.25 7.9765625 C-1.8275 8.31429687 -2.405 8.65203125 -3 9 C-3 7.35 -3 5.7 -3 4 C-1.68 4 -0.36 4 1 4 C0.67 2.68 0.34 1.36 0 0 Z " fill="#E3CB30" transform="translate(314,147)"/>
<path d="M0 0 C0.33 0.99 0.66 1.98 1 3 C0.01 3.66 -0.98 4.32 -2 5 C-1.34 6.65 -0.68 8.3 0 10 C-4.75 8.125 -4.75 8.125 -7 7 C-5.66667905 3.00003714 -3.5042173 2.16217663 0 0 Z " fill="#C4B632" transform="translate(379,61)"/>
<path d="M0 0 C3.875 0.875 3.875 0.875 5 2 C5.07205511 3.68608966 5.08386068 5.37500659 5.0625 7.0625 C5.05347656 7.98160156 5.04445313 8.90070313 5.03515625 9.84765625 C5.02355469 10.55792969 5.01195312 11.26820313 5 12 C4.34 12 3.68 12 3 12 C2.86722656 11.30132812 2.73445313 10.60265625 2.59765625 9.8828125 C2.42105469 8.97273438 2.24445313 8.06265625 2.0625 7.125 C1.88847656 6.22007812 1.71445312 5.31515625 1.53515625 4.3828125 C1.10036299 2.00043683 1.10036299 2.00043683 0 0 Z " fill="#001225" transform="translate(455,254)"/>
<path d="M0 0 C0.66 0.33 1.32 0.66 2 1 C1.01 2.485 1.01 2.485 0 4 C0.41403079 7.82978482 1.73521491 11.37428275 3 15 C-0.875 13.25 -0.875 13.25 -2 11 C-2.35555556 3.53333333 -2.35555556 3.53333333 0 0 Z " fill="#655C63" transform="translate(243,143)"/>
<path d="M0 0 C0.90685547 0.29777344 0.90685547 0.29777344 1.83203125 0.6015625 C1.00058594 1.21644531 1.00058594 1.21644531 0.15234375 1.84375 C-0.57210938 2.38257813 -1.2965625 2.92140625 -2.04296875 3.4765625 C-2.76226562 4.01023438 -3.4815625 4.54390625 -4.22265625 5.09375 C-6.25049507 6.60029412 -6.25049507 6.60029412 -8.16796875 8.6015625 C-7.87536725 5.09034453 -7.35800595 3.79673584 -4.85546875 1.2265625 C-2.16796875 -0.3984375 -2.16796875 -0.3984375 0 0 Z " fill="#271C03" transform="translate(288.16796875,142.3984375)"/>
<path d="M0 0 C0.99 0.33 1.98 0.66 3 1 C2.34 1.66 1.68 2.32 1 3 C0.63047951 5.12860662 0.63047951 5.12860662 0.5859375 7.5703125 C0.54726562 8.46621094 0.50859375 9.36210938 0.46875 10.28515625 C0.4378125 11.22230469 0.406875 12.15945312 0.375 13.125 C0.33632812 14.06988281 0.29765625 15.01476562 0.2578125 15.98828125 C0.16338654 18.32532375 0.07781606 20.66235501 0 23 C-0.33 23 -0.66 23 -1 23 C-1.02887512 19.35418313 -1.04675585 15.70839537 -1.0625 12.0625 C-1.07087891 11.02158203 -1.07925781 9.98066406 -1.08789062 8.90820312 C-1.09272461 7.42416992 -1.09272461 7.42416992 -1.09765625 5.91015625 C-1.10289307 4.99371338 -1.10812988 4.07727051 -1.11352539 3.13305664 C-1 1 -1 1 0 0 Z " fill="#393336" transform="translate(201,62)"/>
<path d="M0 0 C0.66 0 1.32 0 2 0 C1.67 0.99 1.34 1.98 1 3 C0.34 3 -0.32 3 -1 3 C-1.33 6.63 -1.66 10.26 -2 14 C-1.34 14 -0.68 14 0 14 C-0.33 14.99 -0.66 15.98 -1 17 C-3.49005677 14.50994323 -3.29703766 13.62529268 -3.3125 10.1875 C-3.2341905 6.02504904 -2.81766823 3.25115565 0 0 Z " fill="#218BB9" transform="translate(237,253)"/>
<path d="M0 0 C0.66 0 1.32 0 2 0 C1.45276317 3.37462715 0.9451 5.08235 -1 8 C-2.32 7.67 -3.64 7.34 -5 7 C-4.21654285 5.82780457 -3.42297164 4.66236332 -2.625 3.5 C-2.18414062 2.8503125 -1.74328125 2.200625 -1.2890625 1.53125 C-0.65097656 0.77328125 -0.65097656 0.77328125 0 0 Z " fill="#C9D0D4" transform="translate(85,116)"/>
<path d="M0 0 C1.4800841 0.11362262 2.95910074 0.24122908 4.4375 0.375 C5.26121094 0.44460938 6.08492188 0.51421875 6.93359375 0.5859375 C7.95646484 0.79089844 7.95646484 0.79089844 9 1 C9.33 1.66 9.66 2.32 10 3 C6.7 3 3.4 3 0 3 C-0.33 3.99 -0.66 4.98 -1 6 C-1.33 4.68 -1.66 3.36 -2 2 C-1.34 2 -0.68 2 0 2 C0 1.34 0 0.68 0 0 Z " fill="#ACB2B7" transform="translate(262,426)"/>
<path d="M0 0 C0 3 0 3 -2 6 C-5.125 7.1875 -5.125 7.1875 -8 8 C-8 8.66 -8 9.32 -8 10 C-8.99 9.67 -9.98 9.34 -11 9 C-9.8803014 7.99406757 -8.7540588 6.9954151 -7.625 6 C-6.99851562 5.443125 -6.37203125 4.88625 -5.7265625 4.3125 C-4 3 -4 3 -2 3 C-2 2.34 -2 1.68 -2 1 C-1.34 0.67 -0.68 0.34 0 0 Z " fill="#D7DEE1" transform="translate(381,345)"/>
<path d="M0 0 C0.33 0.66 0.66 1.32 1 2 C1.66 2 2.32 2 3 2 C3.66 3.98 4.32 5.96 5 8 C1.46399535 6.08864614 -0.78972846 4.37357234 -3 1 C-2.01 0.67 -1.02 0.34 0 0 Z " fill="#2E1F02" transform="translate(403,56)"/>
<path d="M0 0 C1.32 0 2.64 0 4 0 C4 0.99 4 1.98 4 3 C3.34 3 2.68 3 2 3 C2.33 4.65 2.66 6.3 3 8 C1.68 8.33 0.36 8.66 -1 9 C-0.67 6.03 -0.34 3.06 0 0 Z " fill="#A9B0B2" transform="translate(284,455)"/>
<path d="M0 0 C4.03520597 1.58962659 8.01811282 3.28232318 12 5 C12 5.33 12 5.66 12 6 C4.65306122 6.48979592 4.65306122 6.48979592 1.5 4.125 C0 2 0 2 0 0 Z " fill="#726D71" transform="translate(326,133)"/>
<path d="M0 0 C0.99 0.33 1.98 0.66 3 1 C3 1.66 3 2.32 3 3 C2.443125 3.20625 1.88625 3.4125 1.3125 3.625 C-1.92501302 5.55000774 -3.68231141 8.03850902 -6 11 C-6.66 10.67 -7.32 10.34 -8 10 C-7.50628906 9.44570312 -7.01257813 8.89140625 -6.50390625 8.3203125 C-5.86324219 7.59585938 -5.22257812 6.87140625 -4.5625 6.125 C-3.92441406 5.40570313 -3.28632813 4.68640625 -2.62890625 3.9453125 C-0.94985535 2.09249509 -0.94985535 2.09249509 0 0 Z " fill="#D5C539" transform="translate(299,131)"/>
<path d="M0 0 C0.33 0 0.66 0 1 0 C1.34615998 5.65394631 0.43425238 9.03006806 -2 14 C-2.66 14 -3.32 14 -4 14 C-3.79503906 13.32453125 -3.59007812 12.6490625 -3.37890625 11.953125 C-3.10949219 11.06109375 -2.84007812 10.1690625 -2.5625 9.25 C-2.16224609 7.92742188 -2.16224609 7.92742188 -1.75390625 6.578125 C-1.11531506 4.39434165 -0.53224167 2.21164502 0 0 Z " fill="#8B8187" transform="translate(381,23)"/>
<path d="M0 0 C-1.28519565 2.86697492 -2.57129254 4.97607712 -5 7 C-5.66 7 -6.32 7 -7 7 C-7 7.66 -7 8.32 -7 9 C-7.66 9 -8.32 9 -9 9 C-7.45665977 5.21180126 -4.44676575 0 0 0 Z " fill="#6E6B6D" transform="translate(37,3)"/>
<path d="M0 0 C0 0.66 0 1.32 0 2 C-1.98 2.99 -3.96 3.98 -6 5 C-6.33 3.68 -6.66 2.36 -7 1 C-3.375 -1.125 -3.375 -1.125 0 0 Z " fill="#020408" transform="translate(312,163)"/>
<path d="M0 0 C1.32 0 2.64 0 4 0 C4 0.99 4 1.98 4 3 C4.639375 3.2475 5.27875 3.495 5.9375 3.75 C8 5 8 5 8.62890625 7.078125 C8.81259766 8.02945313 8.81259766 8.02945313 9 9 C7.87105124 8.06725891 6.74699124 7.12859878 5.625 6.1875 C4.99851562 5.66542969 4.37203125 5.14335938 3.7265625 4.60546875 C2 3 2 3 0 0 Z " fill="#E3CD30" transform="translate(379,71)"/>
<path d="M0 0 C1.32 0.66 2.64 1.32 4 2 C-0.39453125 6.00390625 -0.39453125 6.00390625 -2 7 C-2.99 6.67 -3.98 6.34 -5 6 C-3.35 4.02 -1.7 2.04 0 0 Z " fill="#1A0D01" transform="translate(407,69)"/>
<path d="M0 0 C3.24299151 2.38957269 5.50902342 4.2047869 7 8 C5.35 7.67 3.7 7.34 2 7 C1.34 4.69 0.68 2.38 0 0 Z " fill="#322303" transform="translate(383,76)"/>
<path d="M0 0 C1.74861792 -0.10853491 3.49919241 -0.18583428 5.25 -0.25 C6.22453125 -0.29640625 7.1990625 -0.3428125 8.203125 -0.390625 C11 0 11 0 15 4 C10.05 3.01 5.1 2.02 0 1 C0 0.67 0 0.34 0 0 Z " fill="#ABA9AB" transform="translate(344,76)"/>
<path d="M0 0 C0 0.66 0 1.32 0 2 C-4.55426184 4.66590937 -7.73946963 5.31563182 -13 5 C-10.54278328 3.36185552 -8.65432189 2.38047801 -5.9375 1.375 C-5.24527344 1.11460938 -4.55304688 0.85421875 -3.83984375 0.5859375 C-2 0 -2 0 0 0 Z " fill="#8C888A" transform="translate(362,52)"/>
<path d="M0 0 C1.98 0.66 3.96 1.32 6 2 C6 5.63 6 9.26 6 13 C5.67 13 5.34 13 5 13 C4.97421875 12.37351562 4.9484375 11.74703125 4.921875 11.1015625 C4.86515625 10.28429687 4.8084375 9.46703125 4.75 8.625 C4.70359375 7.81289063 4.6571875 7.00078125 4.609375 6.1640625 C4.2077908 3.81161073 4.2077908 3.81161073 1.953125 2.7109375 C1.30859375 2.47632813 0.6640625 2.24171875 0 2 C0 1.34 0 0.68 0 0 Z " fill="#0B73B3" transform="translate(450,254)"/>
<path d="M0 0 C0.33 0.66 0.66 1.32 1 2 C0.690625 2.763125 0.38125 3.52625 0.0625 4.3125 C-1.04184216 7.10583605 -1.1696523 9.03108472 -1 12 C-1.66 12 -2.32 12 -3 12 C-3.15384615 4 -3.15384615 4 -2 1 C-1.34 0.67 -0.68 0.34 0 0 Z " fill="#0FA5E7" transform="translate(238,255)"/>
<path d="M0 0 C3.24299151 2.38957269 5.50902342 4.2047869 7 8 C5.68 8 4.36 8 3 8 C3 7.01 3 6.02 3 5 C2.34 5 1.68 5 1 5 C0.67 3.35 0.34 1.7 0 0 Z " fill="#2E2002" transform="translate(291,159)"/>
<path d="M0 0 C0 0.99 0 1.98 0 3 C-0.639375 3.268125 -1.27875 3.53625 -1.9375 3.8125 C-4.33131686 4.88667752 -4.33131686 4.88667752 -5 8 C-6.32 7.67 -7.64 7.34 -9 7 C-6.03 4.69 -3.06 2.38 0 0 Z " fill="#6B5C6D" transform="translate(371,44)"/>
<path d="M0 0 C2.95183101 2.95183101 3.08663988 5.95511947 4 10 C2.68 9.34 1.36 8.68 0 8 C0.33 6.35 0.66 4.7 1 3 C0.34 2.67 -0.32 2.34 -1 2 C-0.67 1.34 -0.34 0.68 0 0 Z " fill="#B2B8BB" transform="translate(285,412)"/>
<path d="M0 0 C0.66 0.33 1.32 0.66 2 1 C0.02 3.31 -1.96 5.62 -4 8 C-4.99 7.67 -5.98 7.34 -7 7 C-4.69 4.69 -2.38 2.38 0 0 Z " fill="#3A3202" transform="translate(314,153)"/>
<path d="M0 0 C-0.33 1.65 -0.66 3.3 -1 5 C-2.65 3.35 -4.3 1.7 -6 0 C-3 -1 -3 -1 0 0 Z " fill="#E8D221" transform="translate(294,155)"/>
<path d="M0 0 C1.68762851 1.6454378 3.3540349 3.31288577 5 5 C5 5.33 5 5.66 5 6 C3.35 6 1.7 6 0 6 C0 4.02 0 2.04 0 0 Z " fill="#D9C120" transform="translate(302,134)"/>
<path d="M0 0 C0.66 0.33 1.32 0.66 2 1 C-1.44615385 6.78461538 -1.44615385 6.78461538 -4.25 7.875 C-4.8275 7.91625 -5.405 7.9575 -6 8 C-4.26440562 4.942048 -2.61527381 2.36620011 0 0 Z " fill="#402F03" transform="translate(403,72)"/>
<path d="M0 0 C-0.66 1.32 -1.32 2.64 -2 4 C-2.99 3.67 -3.98 3.34 -5 3 C-5.33 3.99 -5.66 4.98 -6 6 C-6.99 5.34 -7.98 4.68 -9 4 C-2.25 0 -2.25 0 0 0 Z " fill="#2F3436" transform="translate(381,354)"/>
<path d="M0 0 C3.24208567 0.35049575 4.61527704 0.56221181 6.8125 3.0625 C7.204375 3.701875 7.59625 4.34125 8 5 C5.07120629 4.37240135 2.63904371 3.41377341 0 2 C0 1.34 0 0.68 0 0 Z " fill="#1F6B99" transform="translate(448,251)"/>
<path d="M0 0 C2.475 0.99 2.475 0.99 5 2 C5 2.99 5 3.98 5 5 C4.01 5.33 3.02 5.66 2 6 C1.34 4.02 0.68 2.04 0 0 Z " fill="#D1C232" transform="translate(405,63)"/>
<path d="M0 0 C0.33 0 0.66 0 1 0 C1 1.65 1 3.3 1 5 C1.66 5.33 2.32 5.66 3 6 C0.525 7.485 0.525 7.485 -2 9 C-1.34 6.03 -0.68 3.06 0 0 Z " fill="#5C5759" transform="translate(59,457)"/>
<path d="M0 0 C2.64 0.33 5.28 0.66 8 1 C8 1.66 8 2.32 8 3 C5.125 3.1875 5.125 3.1875 2 3 C1.34 2.01 0.68 1.02 0 0 Z " fill="#1E8AC1" transform="translate(237,271)"/>
<path d="M0 0 C1.9375 0.75 1.9375 0.75 4 2 C4.75 4.125 4.75 4.125 5 6 C2.69 5.01 0.38 4.02 -2 3 C-1.34 2.01 -0.68 1.02 0 0 Z " fill="#031A30" transform="translate(450,248)"/>
<path d="M0 0 C2.64752004 2.57784846 4.94432065 4.91648098 7 8 C5.1875 7.8125 5.1875 7.8125 3 7 C0 2.82142857 0 2.82142857 0 0 Z " fill="#CDB724" transform="translate(396,53)"/>
<path d="M0 0 C0.33 0 0.66 0 1 0 C1.66 3.63 2.32 7.26 3 11 C2.01 10.34 1.02 9.68 0 9 C-0.29296875 6.8359375 -0.29296875 6.8359375 -0.1875 4.375 C-0.16042969 3.55773437 -0.13335937 2.74046875 -0.10546875 1.8984375 C-0.05326172 0.95871094 -0.05326172 0.95871094 0 0 Z " fill="#938C93" transform="translate(401,21)"/>
</svg>
